<?xml version="1.0" encoding="UTF-8"?>
<svg width="613px" height="372px" viewBox="0 0 613 372" version="1.1" xmlns="http://www.w3.org/2000/svg" xmlns:xlink="http://www.w3.org/1999/xlink">
    <title>Account Validation with Moov/Plaid</title>
    <desc>Account Validation with Moov/Plaid</desc>
    <g id="Page-1" stroke="none" stroke-width="1" fill="none" fill-rule="evenodd">
        <g id="text-outline" transform="translate(1.000000, 1.000000)">
            <path d="M159.320312,188 L159.320312,183.507812 L160.664062,183.507812 C162.132812,183.507812 163.261719,183.196615 164.050781,182.574219 C164.839844,181.951823 165.234375,181.0625 165.234375,179.90625 C165.234375,177.6875 163.807292,176.578125 160.953125,176.578125 L160.953125,176.578125 L157.992188,176.578125 L157.992188,188 L159.320312,188 Z M160.515625,182.367188 L159.320312,182.367188 L159.320312,177.726562 L160.804688,177.726562 C161.851562,177.726562 162.622396,177.911458 163.117188,178.28125 C163.611979,178.651042 163.859375,179.213542 163.859375,179.96875 C163.859375,180.807292 163.596354,181.416667 163.070312,181.796875 C162.544271,182.177083 161.692708,182.367188 160.515625,182.367188 L160.515625,182.367188 Z M168.726562,188 L168.726562,175.84375 L167.429688,175.84375 L167.429688,188 L168.726562,188 Z M173.554688,188.15625 C174.190104,188.15625 174.720052,188.061198 175.144531,187.871094 C175.56901,187.68099 175.994792,187.317708 176.421875,186.78125 L176.421875,186.78125 L176.484375,186.78125 L176.742188,188 L177.703125,188 L177.703125,182.15625 C177.703125,181.15625 177.457031,180.429688 176.964844,179.976562 C176.472656,179.523438 175.716146,179.296875 174.695312,179.296875 C174.190104,179.296875 173.686198,179.361979 173.183594,179.492188 C172.68099,179.622396 172.21875,179.802083 171.796875,180.03125 L171.796875,180.03125 L172.195312,181.023438 C173.096354,180.585938 173.903646,180.367188 174.617188,180.367188 C175.252604,180.367188 175.714844,180.527344 176.003906,180.847656 C176.292969,181.167969 176.4375,181.664062 176.4375,182.335938 L176.4375,182.335938 L176.4375,182.867188 L174.984375,182.914062 C172.21875,182.997396 170.835938,183.903646 170.835938,185.632812 C170.835938,186.440104 171.076823,187.0625 171.558594,187.5 C172.040365,187.9375 172.705729,188.15625 173.554688,188.15625 Z M173.8125,187.085938 C173.302083,187.085938 172.904948,186.963542 172.621094,186.71875 C172.33724,186.473958 172.195312,186.117188 172.195312,185.648438 C172.195312,185.049479 172.423177,184.608073 172.878906,184.324219 C173.334635,184.040365 174.078125,183.880208 175.109375,183.84375 L175.109375,183.84375 L176.40625,183.789062 L176.40625,184.5625 C176.40625,185.359375 176.175781,185.979167 175.714844,186.421875 C175.253906,186.864583 174.619792,187.085938 173.8125,187.085938 Z M181.03125,177.984375 C181.239583,177.984375 181.419271,177.91276 181.570312,177.769531 C181.721354,177.626302 181.796875,177.408854 181.796875,177.117188 C181.796875,176.825521 181.721354,176.609375 181.570312,176.46875 C181.419271,176.328125 181.239583,176.257812 181.03125,176.257812 C180.8125,176.257812 180.630208,176.326823 180.484375,176.464844 C180.338542,176.602865 180.265625,176.820312 180.265625,177.117188 C180.265625,177.408854 180.338542,177.626302 180.484375,177.769531 C180.630208,177.91276 180.8125,177.984375 181.03125,177.984375 Z M181.671875,188 L181.671875,179.4375 L180.375,179.4375 L180.375,188 L181.671875,188 Z M187.492188,188.15625 C188.684896,188.15625 189.580729,187.721354 190.179688,186.851562 L190.179688,186.851562 L190.25,186.851562 L190.421875,188 L191.476562,188 L191.476562,175.84375 L190.179688,175.84375 L190.179688,179.328125 L190.210938,179.929688 L190.265625,180.546875 L190.164062,180.546875 C189.544271,179.703125 188.653646,179.28125 187.492188,179.28125 C186.377604,179.28125 185.507812,179.671875 184.882812,180.453125 C184.257812,181.234375 183.945312,182.330729 183.945312,183.742188 C183.945312,185.153646 184.25651,186.242188 184.878906,187.007812 C185.501302,187.773438 186.372396,188.15625 187.492188,188.15625 Z M187.65625,187.070312 C186.880208,187.070312 186.291667,186.791667 185.890625,186.234375 C185.489583,185.677083 185.289062,184.851562 185.289062,183.757812 C185.289062,182.679688 185.490885,181.845052 185.894531,181.253906 C186.298177,180.66276 186.880208,180.367188 187.640625,180.367188 C188.526042,180.367188 189.170573,180.626302 189.574219,181.144531 C189.977865,181.66276 190.179688,182.528646 190.179688,183.742188 L190.179688,183.742188 L190.179688,184.015625 C190.179688,185.088542 189.980469,185.865885 189.582031,186.347656 C189.183594,186.829427 188.541667,187.070312 187.65625,187.070312 Z M204.945312,188 L204.945312,186.796875 L199.90625,186.796875 L199.90625,176.578125 L198.578125,176.578125 L198.578125,188 L204.945312,188 Z M207.34375,177.984375 C207.552083,177.984375 207.731771,177.91276 207.882812,177.769531 C208.033854,177.626302 208.109375,177.408854 208.109375,177.117188 C208.109375,176.825521 208.033854,176.609375 207.882812,176.46875 C207.731771,176.328125 207.552083,176.257812 207.34375,176.257812 C207.125,176.257812 206.942708,176.326823 206.796875,176.464844 C206.651042,176.602865 206.578125,176.820312 206.578125,177.117188 C206.578125,177.408854 206.651042,177.626302 206.796875,177.769531 C206.942708,177.91276 207.125,177.984375 207.34375,177.984375 Z M207.984375,188 L207.984375,179.4375 L206.6875,179.4375 L206.6875,188 L207.984375,188 Z M212.03125,188 L212.03125,183.507812 C212.03125,182.393229 212.239583,181.59375 212.65625,181.109375 C213.072917,180.625 213.729167,180.382812 214.625,180.382812 C215.302083,180.382812 215.799479,180.554688 216.117188,180.898438 C216.434896,181.242188 216.59375,181.763021 216.59375,182.460938 L216.59375,182.460938 L216.59375,188 L217.890625,188 L217.890625,182.414062 C217.890625,181.320312 217.630208,180.52474 217.109375,180.027344 C216.588542,179.529948 215.8125,179.28125 214.78125,179.28125 C214.192708,179.28125 213.658854,179.397135 213.179688,179.628906 C212.700521,179.860677 212.328125,180.1875 212.0625,180.609375 L212.0625,180.609375 L212,180.609375 L211.789062,179.4375 L210.734375,179.4375 L210.734375,188 L212.03125,188 Z M221.835938,188 L221.835938,184.796875 L222.8125,183.953125 L225.835938,188 L227.40625,188 L223.695312,183.085938 L227.164062,179.4375 L225.625,179.4375 L222.859375,182.367188 C222.401042,182.882812 222.059896,183.299479 221.835938,183.617188 L221.835938,183.617188 L221.773438,183.617188 C221.815104,183.018229 221.835938,182.575521 221.835938,182.289062 L221.835938,182.289062 L221.835938,175.84375 L220.554688,175.84375 L220.554688,188 L221.835938,188 Z" id="PlaidLink" fill="#000000" fill-rule="nonzero"></path>
            <g id="Plaid-Link-Copy" transform="translate(74.000000, 122.000000)">
                <rect id="Rectangle" stroke="#343434" x="0" y="0" width="67" height="120" rx="4"></rect>
                <g id="Group" transform="translate(8.000000, 28.000000)">
                    <rect id="Rectangle-Copy-3" stroke="#343434" x="0" y="0" width="52" height="12"></rect>
                    <rect id="Rectangle-Copy-4" stroke="#343434" x="0" y="16" width="52" height="12"></rect>
                    <rect id="Rectangle-Copy-5" stroke="#343434" fill="#33B91E" x="0" y="32" width="52" height="12"></rect>
                    <path d="M9.93164062,9.25585938 L10.9394531,8.70507812 L9.48632812,6.79492188 L11.71875,6.61328125 L11.5664062,5.546875 L9.234375,6.19726562 L9.48632812,3.8828125 L8.34960938,3.8828125 L8.6015625,6.19726562 L6.31054688,5.546875 L6.140625,6.61328125 L8.34960938,6.79492188 L6.93164062,8.70507812 L7.96289062,9.25585938 L8.90039062,7.13476562 L9.93164062,9.25585938 Z M16.5527344,9.25585938 L17.5605469,8.70507812 L16.1074219,6.79492188 L18.3398438,6.61328125 L18.1875,5.546875 L15.8554688,6.19726562 L16.1074219,3.8828125 L14.9707031,3.8828125 L15.2226562,6.19726562 L12.9316406,5.546875 L12.7617188,6.61328125 L14.9707031,6.79492188 L13.5527344,8.70507812 L14.5839844,9.25585938 L15.5214844,7.13476562 L16.5527344,9.25585938 Z M23.1738281,9.25585938 L24.1816406,8.70507812 L22.7285156,6.79492188 L24.9609375,6.61328125 L24.8085938,5.546875 L22.4765625,6.19726562 L22.7285156,3.8828125 L21.5917969,3.8828125 L21.84375,6.19726562 L19.5527344,5.546875 L19.3828125,6.61328125 L21.5917969,6.79492188 L20.1738281,8.70507812 L21.2050781,9.25585938 L22.1425781,7.13476562 L23.1738281,9.25585938 Z M29.7949219,9.25585938 L30.8027344,8.70507812 L29.3496094,6.79492188 L31.5820312,6.61328125 L31.4296875,5.546875 L29.0976562,6.19726562 L29.3496094,3.8828125 L28.2128906,3.8828125 L28.4648438,6.19726562 L26.1738281,5.546875 L26.0039062,6.61328125 L28.2128906,6.79492188 L26.7949219,8.70507812 L27.8261719,9.25585938 L28.7636719,7.13476562 L29.7949219,9.25585938 Z M36.4160156,9.25585938 L37.4238281,8.70507812 L35.9707031,6.79492188 L38.203125,6.61328125 L38.0507812,5.546875 L35.71875,6.19726562 L35.9707031,3.8828125 L34.8339844,3.8828125 L35.0859375,6.19726562 L32.7949219,5.546875 L32.625,6.61328125 L34.8339844,6.79492188 L33.4160156,8.70507812 L34.4472656,9.25585938 L35.3847656,7.13476562 L36.4160156,9.25585938 Z M43.0371094,9.25585938 L44.0449219,8.70507812 L42.5917969,6.79492188 L44.8242188,6.61328125 L44.671875,5.546875 L42.3398438,6.19726562 L42.5917969,3.8828125 L41.4550781,3.8828125 L41.7070312,6.19726562 L39.4160156,5.546875 L39.2460938,6.61328125 L41.4550781,6.79492188 L40.0371094,8.70507812 L41.0683594,9.25585938 L42.0058594,7.13476562 L43.0371094,9.25585938 Z" id="******" fill="#000000" fill-rule="nonzero"></path>
                    <path d="M9.93164062,24.2558594 L10.9394531,23.7050781 L9.48632812,21.7949219 L11.71875,21.6132812 L11.5664062,20.546875 L9.234375,21.1972656 L9.48632812,18.8828125 L8.34960938,18.8828125 L8.6015625,21.1972656 L6.31054688,20.546875 L6.140625,21.6132812 L8.34960938,21.7949219 L6.93164062,23.7050781 L7.96289062,24.2558594 L8.90039062,22.1347656 L9.93164062,24.2558594 Z M16.5527344,24.2558594 L17.5605469,23.7050781 L16.1074219,21.7949219 L18.3398438,21.6132812 L18.1875,20.546875 L15.8554688,21.1972656 L16.1074219,18.8828125 L14.9707031,18.8828125 L15.2226562,21.1972656 L12.9316406,20.546875 L12.7617188,21.6132812 L14.9707031,21.7949219 L13.5527344,23.7050781 L14.5839844,24.2558594 L15.5214844,22.1347656 L16.5527344,24.2558594 Z M23.1738281,24.2558594 L24.1816406,23.7050781 L22.7285156,21.7949219 L24.9609375,21.6132812 L24.8085938,20.546875 L22.4765625,21.1972656 L22.7285156,18.8828125 L21.5917969,18.8828125 L21.84375,21.1972656 L19.5527344,20.546875 L19.3828125,21.6132812 L21.5917969,21.7949219 L20.1738281,23.7050781 L21.2050781,24.2558594 L22.1425781,22.1347656 L23.1738281,24.2558594 Z M29.7949219,24.2558594 L30.8027344,23.7050781 L29.3496094,21.7949219 L31.5820312,21.6132812 L31.4296875,20.546875 L29.0976562,21.1972656 L29.3496094,18.8828125 L28.2128906,18.8828125 L28.4648438,21.1972656 L26.1738281,20.546875 L26.0039062,21.6132812 L28.2128906,21.7949219 L26.7949219,23.7050781 L27.8261719,24.2558594 L28.7636719,22.1347656 L29.7949219,24.2558594 Z M36.4160156,24.2558594 L37.4238281,23.7050781 L35.9707031,21.7949219 L38.203125,21.6132812 L38.0507812,20.546875 L35.71875,21.1972656 L35.9707031,18.8828125 L34.8339844,18.8828125 L35.0859375,21.1972656 L32.7949219,20.546875 L32.625,21.6132812 L34.8339844,21.7949219 L33.4160156,23.7050781 L34.4472656,24.2558594 L35.3847656,22.1347656 L36.4160156,24.2558594 Z M43.0371094,24.2558594 L44.0449219,23.7050781 L42.5917969,21.7949219 L44.8242188,21.6132812 L44.671875,20.546875 L42.3398438,21.1972656 L42.5917969,18.8828125 L41.4550781,18.8828125 L41.7070312,21.1972656 L39.4160156,20.546875 L39.2460938,21.6132812 L41.4550781,21.7949219 L40.0371094,23.7050781 L41.0683594,24.2558594 L42.0058594,22.1347656 L43.0371094,24.2558594 Z" id="******" fill="#000000" fill-rule="nonzero"></path>
                </g>
                <line x1="0.493243243" y1="14.5" x2="66.5" y2="14.5" id="Line-2" stroke="#343434" stroke-linecap="square"></line>
                <line x1="0.493243243" y1="106.5" x2="66.5" y2="106.5" id="Line-2-Copy" stroke="#343434" stroke-linecap="square"></line>
                <line x1="26.5" y1="6.5" x2="40.5" y2="6.5" id="Line-3" stroke="#343434" stroke-linecap="square"></line>
                <circle id="Oval" stroke="#343434" cx="33.5" cy="113.5" r="3.5"></circle>
            </g>
            <g id="initiate-validation-copy" transform="translate(47.000000, 0.000000)">
                <g id="Plaid-1" transform="translate(435.000000, 1.000000)">
                    <rect id="Rectangle-Copy-2" stroke="#343434" x="0" y="0" width="129" height="78" rx="4"></rect>
                    <path d="M49.1835938,45 L49.1835938,40.5078125 L50.5273438,40.5078125 C51.9960938,40.5078125 53.125,40.1966146 53.9140625,39.5742188 C54.703125,38.9518229 55.0976562,38.0625 55.0976562,36.90625 C55.0976562,34.6875 53.6705729,33.578125 50.8164062,33.578125 L50.8164062,33.578125 L47.8554688,33.578125 L47.8554688,45 L49.1835938,45 Z M50.3789062,39.3671875 L49.1835938,39.3671875 L49.1835938,34.7265625 L50.6679688,34.7265625 C51.7148438,34.7265625 52.4856771,34.9114583 52.9804688,35.28125 C53.4752604,35.6510417 53.7226562,36.2135417 53.7226562,36.96875 C53.7226562,37.8072917 53.4596354,38.4166667 52.9335938,38.796875 C52.4075521,39.1770833 51.5559896,39.3671875 50.3789062,39.3671875 L50.3789062,39.3671875 Z M58.5898438,45 L58.5898438,32.84375 L57.2929688,32.84375 L57.2929688,45 L58.5898438,45 Z M63.4179688,45.15625 C64.0533854,45.15625 64.5833333,45.0611979 65.0078125,44.8710938 C65.4322917,44.6809896 65.8580729,44.3177083 66.2851562,43.78125 L66.2851562,43.78125 L66.3476562,43.78125 L66.6054688,45 L67.5664062,45 L67.5664062,39.15625 C67.5664062,38.15625 67.3203125,37.4296875 66.828125,36.9765625 C66.3359375,36.5234375 65.5794271,36.296875 64.5585938,36.296875 C64.0533854,36.296875 63.5494792,36.3619792 63.046875,36.4921875 C62.5442708,36.6223958 62.0820312,36.8020833 61.6601562,37.03125 L61.6601562,37.03125 L62.0585938,38.0234375 C62.9596354,37.5859375 63.7669271,37.3671875 64.4804688,37.3671875 C65.1158854,37.3671875 65.578125,37.5273438 65.8671875,37.8476562 C66.15625,38.1679688 66.3007812,38.6640625 66.3007812,39.3359375 L66.3007812,39.3359375 L66.3007812,39.8671875 L64.8476562,39.9140625 C62.0820312,39.9973958 60.6992188,40.9036458 60.6992188,42.6328125 C60.6992188,43.4401042 60.9401042,44.0625 61.421875,44.5 C61.9036458,44.9375 62.5690104,45.15625 63.4179688,45.15625 Z M63.6757812,44.0859375 C63.1653646,44.0859375 62.7682292,43.9635417 62.484375,43.71875 C62.2005208,43.4739583 62.0585938,43.1171875 62.0585938,42.6484375 C62.0585938,42.0494792 62.2864583,41.6080729 62.7421875,41.3242188 C63.1979167,41.0403646 63.9414062,40.8802083 64.9726562,40.84375 L64.9726562,40.84375 L66.2695312,40.7890625 L66.2695312,41.5625 C66.2695312,42.359375 66.0390625,42.9791667 65.578125,43.421875 C65.1171875,43.8645833 64.4830729,44.0859375 63.6757812,44.0859375 Z M70.8945312,34.984375 C71.1028646,34.984375 71.2825521,34.9127604 71.4335938,34.7695312 C71.5846354,34.6263021 71.6601562,34.4088542 71.6601562,34.1171875 C71.6601562,33.8255208 71.5846354,33.609375 71.4335938,33.46875 C71.2825521,33.328125 71.1028646,33.2578125 70.8945312,33.2578125 C70.6757812,33.2578125 70.4934896,33.3268229 70.3476562,33.4648438 C70.2018229,33.6028646 70.1289062,33.8203125 70.1289062,34.1171875 C70.1289062,34.4088542 70.2018229,34.6263021 70.3476562,34.7695312 C70.4934896,34.9127604 70.6757812,34.984375 70.8945312,34.984375 Z M71.5351562,45 L71.5351562,36.4375 L70.2382812,36.4375 L70.2382812,45 L71.5351562,45 Z M77.3554688,45.15625 C78.5481771,45.15625 79.4440104,44.7213542 80.0429688,43.8515625 L80.0429688,43.8515625 L80.1132812,43.8515625 L80.2851562,45 L81.3398438,45 L81.3398438,32.84375 L80.0429688,32.84375 L80.0429688,36.328125 L80.0742188,36.9296875 L80.1289062,37.546875 L80.0273438,37.546875 C79.4075521,36.703125 78.5169271,36.28125 77.3554688,36.28125 C76.2408854,36.28125 75.3710938,36.671875 74.7460938,37.453125 C74.1210938,38.234375 73.8085938,39.3307292 73.8085938,40.7421875 C73.8085938,42.1536458 74.1197917,43.2421875 74.7421875,44.0078125 C75.3645833,44.7734375 76.2356771,45.15625 77.3554688,45.15625 Z M77.5195312,44.0703125 C76.7434896,44.0703125 76.1549479,43.7916667 75.7539062,43.234375 C75.3528646,42.6770833 75.1523438,41.8515625 75.1523438,40.7578125 C75.1523438,39.6796875 75.3541667,38.8450521 75.7578125,38.2539062 C76.1614583,37.6627604 76.7434896,37.3671875 77.5039062,37.3671875 C78.3893229,37.3671875 79.0338542,37.6263021 79.4375,38.1445312 C79.8411458,38.6627604 80.0429688,39.5286458 80.0429688,40.7421875 L80.0429688,40.7421875 L80.0429688,41.015625 C80.0429688,42.0885417 79.84375,42.8658854 79.4453125,43.3476562 C79.046875,43.8294271 78.4049479,44.0703125 77.5195312,44.0703125 Z" id="Plaid" fill="#000000" fill-rule="nonzero"></path>
                </g>
                <g id="Customers-1" transform="translate(218.000000, 0.000000)">
                    <rect id="Rectangle-Copy" stroke="#343434" x="0" y="0" width="129" height="78" rx="4"></rect>
                    <path d="M46.5625,37 L46.5625,29.734375 C46.5625,28.6302083 46.5260417,27.6770833 46.453125,26.875 L46.453125,26.875 L46.515625,26.875 L50.390625,37 L51.4609375,37 L55.3671875,26.890625 L55.4296875,26.890625 C55.3567708,27.8802083 55.3203125,28.796875 55.3203125,29.640625 L55.3203125,29.640625 L55.3203125,37 L56.6484375,37 L56.6484375,25.578125 L54.6640625,25.578125 L51.015625,35 L50.953125,35 L47.3359375,25.578125 L45.3359375,25.578125 L45.3359375,37 L46.5625,37 Z M63.0078125,37.15625 C64.2473958,37.15625 65.21875,36.7643229 65.921875,35.9804688 C66.625,35.1966146 66.9765625,34.1067708 66.9765625,32.7109375 C66.9765625,31.3515625 66.6236979,30.2734375 65.9179688,29.4765625 C65.2122396,28.6796875 64.2604167,28.28125 63.0625,28.28125 C61.8229167,28.28125 60.8541667,28.6705729 60.15625,29.4492188 C59.4583333,30.2278646 59.109375,31.3151042 59.109375,32.7109375 C59.109375,33.6119792 59.2708333,34.3984375 59.59375,35.0703125 C59.9166667,35.7421875 60.375,36.2578125 60.96875,36.6171875 C61.5625,36.9765625 62.2421875,37.15625 63.0078125,37.15625 Z M63.0390625,36.0703125 C62.1901042,36.0703125 61.546875,35.7838542 61.109375,35.2109375 C60.671875,34.6380208 60.453125,33.8046875 60.453125,32.7109375 C60.453125,31.6067708 60.6692708,30.7760417 61.1015625,30.21875 C61.5338542,29.6614583 62.1744792,29.3828125 63.0234375,29.3828125 C63.8828125,29.3828125 64.5325521,29.6653646 64.9726562,30.2304688 C65.4127604,30.7955729 65.6328125,31.6223958 65.6328125,32.7109375 C65.6328125,33.8098958 65.4127604,34.6445312 64.9726562,35.2148438 C64.5325521,35.7851562 63.8880208,36.0703125 63.0390625,36.0703125 Z M72.671875,37.15625 C73.9114583,37.15625 74.8828125,36.7643229 75.5859375,35.9804688 C76.2890625,35.1966146 76.640625,34.1067708 76.640625,32.7109375 C76.640625,31.3515625 76.2877604,30.2734375 75.5820312,29.4765625 C74.8763021,28.6796875 73.9244792,28.28125 72.7265625,28.28125 C71.4869792,28.28125 70.5182292,28.6705729 69.8203125,29.4492188 C69.1223958,30.2278646 68.7734375,31.3151042 68.7734375,32.7109375 C68.7734375,33.6119792 68.9348958,34.3984375 69.2578125,35.0703125 C69.5807292,35.7421875 70.0390625,36.2578125 70.6328125,36.6171875 C71.2265625,36.9765625 71.90625,37.15625 72.671875,37.15625 Z M72.703125,36.0703125 C71.8541667,36.0703125 71.2109375,35.7838542 70.7734375,35.2109375 C70.3359375,34.6380208 70.1171875,33.8046875 70.1171875,32.7109375 C70.1171875,31.6067708 70.3333333,30.7760417 70.765625,30.21875 C71.1979167,29.6614583 71.8385417,29.3828125 72.6875,29.3828125 C73.546875,29.3828125 74.1966146,29.6653646 74.6367188,30.2304688 C75.0768229,30.7955729 75.296875,31.6223958 75.296875,32.7109375 C75.296875,33.8098958 75.0768229,34.6445312 74.6367188,35.2148438 C74.1966146,35.7851562 73.5520833,36.0703125 72.703125,36.0703125 Z M81.984375,37 L85.234375,28.4375 L83.84375,28.4375 C82.78125,31.3541667 82.0976562,33.2460938 81.7929688,34.1132812 C81.4882812,34.9804688 81.3072917,35.5520833 81.25,35.828125 L81.25,35.828125 L81.1875,35.828125 C81.1145833,35.4739583 80.8697917,34.703125 80.453125,33.515625 L80.453125,33.515625 L78.609375,28.4375 L77.21875,28.4375 L80.46875,37 L81.984375,37 Z M30.3007812,54.15625 C31.4622396,54.15625 32.4388021,54.0078125 33.2304688,53.7109375 L33.2304688,53.7109375 L33.2304688,52.546875 C32.2096354,52.8333333 31.3007812,52.9765625 30.5039062,52.9765625 C29.2070312,52.9765625 28.2083333,52.5690104 27.5078125,51.7539062 C26.8072917,50.9388021 26.4570312,49.7838542 26.4570312,48.2890625 C26.4570312,46.8359375 26.8203125,45.6914062 27.546875,44.8554688 C28.2734375,44.0195312 29.2643229,43.6015625 30.5195312,43.6015625 C31.3841146,43.6015625 32.2486979,43.8046875 33.1132812,44.2109375 L33.1132812,44.2109375 L33.6757812,43.0703125 C32.7799479,42.6328125 31.7330729,42.4140625 30.5351562,42.4140625 C29.4101562,42.4140625 28.4322917,42.6536458 27.6015625,43.1328125 C26.7708333,43.6119792 26.1354167,44.2942708 25.6953125,45.1796875 C25.2552083,46.0651042 25.0351562,47.0963542 25.0351562,48.2734375 C25.0351562,50.1536458 25.4921875,51.6041667 26.40625,52.625 C27.3203125,53.6458333 28.6184896,54.15625 30.3007812,54.15625 Z M38.5507812,54.15625 C39.1549479,54.15625 39.6927083,54.0442708 40.1640625,53.8203125 C40.6354167,53.5963542 41.0039062,53.2734375 41.2695312,52.8515625 L41.2695312,52.8515625 L41.3398438,52.8515625 L41.5273438,54 L42.5976562,54 L42.5976562,45.4375 L41.3007812,45.4375 L41.3007812,49.9375 C41.3007812,51.046875 41.09375,51.8463542 40.6796875,52.3359375 C40.265625,52.8255208 39.6106771,53.0703125 38.7148438,53.0703125 C38.0377604,53.0703125 37.5403646,52.8984375 37.2226562,52.5546875 C36.9049479,52.2109375 36.7460938,51.6901042 36.7460938,50.9921875 L36.7460938,50.9921875 L36.7460938,45.4375 L35.4335938,45.4375 L35.4335938,51.0390625 C35.4335938,52.1276042 35.6927083,52.9192708 36.2109375,53.4140625 C36.7291667,53.9088542 37.5091146,54.15625 38.5507812,54.15625 Z M47.4804688,54.15625 C48.5533854,54.15625 49.3867188,53.9401042 49.9804688,53.5078125 C50.5742188,53.0755208 50.8710938,52.4609375 50.8710938,51.6640625 C50.8710938,51.0963542 50.6927083,50.625 50.3359375,50.25 C49.9791667,49.875 49.2929688,49.5026042 48.2773438,49.1328125 C47.5377604,48.8567708 47.0377604,48.6458333 46.7773438,48.5 C46.5169271,48.3541667 46.328125,48.2005208 46.2109375,48.0390625 C46.09375,47.8776042 46.0351562,47.6822917 46.0351562,47.453125 C46.0351562,47.1145833 46.1914062,46.8489583 46.5039062,46.65625 C46.8164062,46.4635417 47.2799479,46.3671875 47.8945312,46.3671875 C48.5924479,46.3671875 49.3710938,46.5442708 50.2304688,46.8984375 L50.2304688,46.8984375 L50.6914062,45.84375 C49.8111979,45.46875 48.9101562,45.28125 47.9882812,45.28125 C46.9986979,45.28125 46.2200521,45.4830729 45.6523438,45.8867188 C45.0846354,46.2903646 44.8007812,46.8411458 44.8007812,47.5390625 C44.8007812,47.9296875 44.8828125,48.265625 45.046875,48.546875 C45.2109375,48.828125 45.4609375,49.0794271 45.796875,49.3007812 C46.1328125,49.5221354 46.6992188,49.78125 47.4960938,50.078125 C48.3346354,50.4010417 48.8984375,50.6809896 49.1875,50.9179688 C49.4765625,51.1549479 49.6210938,51.4401042 49.6210938,51.7734375 C49.6210938,52.2161458 49.4388021,52.5455729 49.0742188,52.7617188 C48.7096354,52.9778646 48.1888021,53.0859375 47.5117188,53.0859375 C47.0742188,53.0859375 46.6197917,53.0260417 46.1484375,52.90625 C45.6770833,52.7864583 45.2356771,52.6223958 44.8242188,52.4140625 L44.8242188,52.4140625 L44.8242188,53.6171875 C45.4596354,53.9765625 46.3450521,54.15625 47.4804688,54.15625 Z M55.5585938,54.15625 C55.7773438,54.15625 56.0234375,54.1341146 56.296875,54.0898438 C56.5703125,54.0455729 56.7773438,53.9895833 56.9179688,53.921875 L56.9179688,53.921875 L56.9179688,52.9296875 C56.7929688,52.9661458 56.6236979,53.0013021 56.4101562,53.0351562 C56.1966146,53.0690104 55.9752604,53.0859375 55.7460938,53.0859375 C55.3190104,53.0859375 54.9830729,52.9479167 54.7382812,52.671875 C54.4934896,52.3958333 54.3710938,52 54.3710938,51.484375 L54.3710938,51.484375 L54.3710938,46.4453125 L56.8554688,46.4453125 L56.8554688,45.4375 L54.3710938,45.4375 L54.3710938,43.453125 L53.6210938,43.453125 L53.0742188,45.28125 L51.8476562,45.8203125 L51.8476562,46.4453125 L53.0742188,46.4453125 L53.0742188,51.5390625 C53.0742188,53.2838542 53.9023438,54.15625 55.5585938,54.15625 Z M62.0507812,54.15625 C63.2903646,54.15625 64.2617188,53.7643229 64.9648438,52.9804688 C65.6679688,52.1966146 66.0195312,51.1067708 66.0195312,49.7109375 C66.0195312,48.3515625 65.6666667,47.2734375 64.9609375,46.4765625 C64.2552083,45.6796875 63.3033854,45.28125 62.1054688,45.28125 C60.8658854,45.28125 59.8971354,45.6705729 59.1992188,46.4492188 C58.5013021,47.2278646 58.1523438,48.3151042 58.1523438,49.7109375 C58.1523438,50.6119792 58.3138021,51.3984375 58.6367188,52.0703125 C58.9596354,52.7421875 59.4179688,53.2578125 60.0117188,53.6171875 C60.6054688,53.9765625 61.2851562,54.15625 62.0507812,54.15625 Z M62.0820312,53.0703125 C61.2330729,53.0703125 60.5898438,52.7838542 60.1523438,52.2109375 C59.7148438,51.6380208 59.4960938,50.8046875 59.4960938,49.7109375 C59.4960938,48.6067708 59.7122396,47.7760417 60.1445312,47.21875 C60.5768229,46.6614583 61.2174479,46.3828125 62.0664062,46.3828125 C62.9257812,46.3828125 63.5755208,46.6653646 64.015625,47.2304688 C64.4557292,47.7955729 64.6757812,48.6223958 64.6757812,49.7109375 C64.6757812,50.8098958 64.4557292,51.6445312 64.015625,52.2148438 C63.5755208,52.7851562 62.9309896,53.0703125 62.0820312,53.0703125 Z M69.5898438,54 L69.5898438,49.5078125 C69.5898438,48.3984375 69.7786458,47.6002604 70.15625,47.1132812 C70.5338542,46.6263021 71.1289062,46.3828125 71.9414062,46.3828125 C72.5611979,46.3828125 73.0169271,46.5533854 73.3085938,46.8945312 C73.6002604,47.2356771 73.7460938,47.7473958 73.7460938,48.4296875 L73.7460938,48.4296875 L73.7460938,54 L75.0429688,54 L75.0429688,49.21875 C75.0429688,48.2552083 75.2356771,47.5416667 75.6210938,47.078125 C76.0065104,46.6145833 76.6028646,46.3828125 77.4101562,46.3828125 C78.0247396,46.3828125 78.4778646,46.5533854 78.7695312,46.8945312 C79.0611979,47.2356771 79.2070312,47.7473958 79.2070312,48.4296875 L79.2070312,48.4296875 L79.2070312,54 L80.5039062,54 L80.5039062,48.4140625 C80.5039062,47.3203125 80.2630208,46.5247396 79.78125,46.0273438 C79.2994792,45.5299479 78.5742188,45.28125 77.6054688,45.28125 C76.9856771,45.28125 76.4335938,45.4114583 75.9492188,45.671875 C75.4648438,45.9322917 75.0950521,46.2864583 74.8398438,46.734375 L74.8398438,46.734375 L74.7773438,46.734375 C74.3658854,45.765625 73.4908854,45.28125 72.1523438,45.28125 C71.6002604,45.28125 71.1015625,45.3984375 70.65625,45.6328125 C70.2109375,45.8671875 69.8658854,46.1927083 69.6210938,46.609375 L69.6210938,46.609375 L69.5585938,46.609375 L69.3476562,45.4375 L68.2929688,45.4375 L68.2929688,54 L69.5898438,54 Z M86.7929688,54.15625 C87.3710938,54.15625 87.8645833,54.1132812 88.2734375,54.0273438 C88.6822917,53.9414062 89.1158854,53.7994792 89.5742188,53.6015625 L89.5742188,53.6015625 L89.5742188,52.4453125 C88.6731771,52.8307292 87.7617188,53.0234375 86.8398438,53.0234375 C85.9648438,53.0234375 85.2864583,52.7630208 84.8046875,52.2421875 C84.3229167,51.7213542 84.0690104,50.9583333 84.0429688,49.953125 L84.0429688,49.953125 L89.9414062,49.953125 L89.9414062,49.1328125 C89.9414062,47.9765625 89.6289062,47.0455729 89.0039062,46.3398438 C88.3789062,45.6341146 87.5299479,45.28125 86.4570312,45.28125 C85.3111979,45.28125 84.3984375,45.6875 83.71875,46.5 C83.0390625,47.3125 82.6992188,48.4088542 82.6992188,49.7890625 C82.6992188,51.1588542 83.0651042,52.2291667 83.796875,53 C84.5286458,53.7708333 85.5273438,54.15625 86.7929688,54.15625 Z M88.5507812,48.8984375 L84.0742188,48.8984375 C84.1471354,48.1067708 84.3880208,47.4869792 84.796875,47.0390625 C85.2057292,46.5911458 85.7539062,46.3671875 86.4414062,46.3671875 C87.1184896,46.3671875 87.6393229,46.5846354 88.0039062,47.0195312 C88.3684896,47.4544271 88.5507812,48.0807292 88.5507812,48.8984375 L88.5507812,48.8984375 Z M93.4492188,54 L93.4492188,49.40625 C93.4492188,48.5677083 93.6953125,47.8671875 94.1875,47.3046875 C94.6796875,46.7421875 95.2721354,46.4609375 95.9648438,46.4609375 C96.2356771,46.4609375 96.5481771,46.5 96.9023438,46.578125 L96.9023438,46.578125 L97.0820312,45.375 C96.7799479,45.3125 96.4388021,45.28125 96.0585938,45.28125 C95.5221354,45.28125 95.0299479,45.4322917 94.5820312,45.734375 C94.1341146,46.0364583 93.7513021,46.4661458 93.4335938,47.0234375 L93.4335938,47.0234375 L93.3710938,47.0234375 L93.2226562,45.4375 L92.1523438,45.4375 L92.1523438,54 L93.4492188,54 Z M100.816406,54.15625 C101.889323,54.15625 102.722656,53.9401042 103.316406,53.5078125 C103.910156,53.0755208 104.207031,52.4609375 104.207031,51.6640625 C104.207031,51.0963542 104.028646,50.625 103.671875,50.25 C103.315104,49.875 102.628906,49.5026042 101.613281,49.1328125 C100.873698,48.8567708 100.373698,48.6458333 100.113281,48.5 C99.8528646,48.3541667 99.6640625,48.2005208 99.546875,48.0390625 C99.4296875,47.8776042 99.3710938,47.6822917 99.3710938,47.453125 C99.3710938,47.1145833 99.5273438,46.8489583 99.8398438,46.65625 C100.152344,46.4635417 100.615885,46.3671875 101.230469,46.3671875 C101.928385,46.3671875 102.707031,46.5442708 103.566406,46.8984375 L103.566406,46.8984375 L104.027344,45.84375 C103.147135,45.46875 102.246094,45.28125 101.324219,45.28125 C100.334635,45.28125 99.5559896,45.4830729 98.9882812,45.8867188 C98.4205729,46.2903646 98.1367188,46.8411458 98.1367188,47.5390625 C98.1367188,47.9296875 98.21875,48.265625 98.3828125,48.546875 C98.546875,48.828125 98.796875,49.0794271 99.1328125,49.3007812 C99.46875,49.5221354 100.035156,49.78125 100.832031,50.078125 C101.670573,50.4010417 102.234375,50.6809896 102.523438,50.9179688 C102.8125,51.1549479 102.957031,51.4401042 102.957031,51.7734375 C102.957031,52.2161458 102.77474,52.5455729 102.410156,52.7617188 C102.045573,52.9778646 101.52474,53.0859375 100.847656,53.0859375 C100.410156,53.0859375 99.9557292,53.0260417 99.484375,52.90625 C99.0130208,52.7864583 98.5716146,52.6223958 98.1601562,52.4140625 L98.1601562,52.4140625 L98.1601562,53.6171875 C98.7955729,53.9765625 99.6809896,54.15625 100.816406,54.15625 Z" id="MoovCustomers" fill="#000000" fill-rule="nonzero"></path>
                </g>
                <g id="Backend-1">
                    <rect id="Rectangle" stroke="#343434" x="0" y="0" width="129" height="78" rx="4"></rect>
                    <path d="M36.7265625,37 L36.7265625,32.5703125 L40.5390625,25.578125 L39.1015625,25.578125 L36.0546875,31.2890625 L33.03125,25.578125 L31.578125,25.578125 L35.3828125,32.6328125 L35.3828125,37 L36.7265625,37 Z M44.5390625,37.15625 C45.7786458,37.15625 46.75,36.7643229 47.453125,35.9804688 C48.15625,35.1966146 48.5078125,34.1067708 48.5078125,32.7109375 C48.5078125,31.3515625 48.1549479,30.2734375 47.4492188,29.4765625 C46.7434896,28.6796875 45.7916667,28.28125 44.59375,28.28125 C43.3541667,28.28125 42.3854167,28.6705729 41.6875,29.4492188 C40.9895833,30.2278646 40.640625,31.3151042 40.640625,32.7109375 C40.640625,33.6119792 40.8020833,34.3984375 41.125,35.0703125 C41.4479167,35.7421875 41.90625,36.2578125 42.5,36.6171875 C43.09375,36.9765625 43.7734375,37.15625 44.5390625,37.15625 Z M44.5703125,36.0703125 C43.7213542,36.0703125 43.078125,35.7838542 42.640625,35.2109375 C42.203125,34.6380208 41.984375,33.8046875 41.984375,32.7109375 C41.984375,31.6067708 42.2005208,30.7760417 42.6328125,30.21875 C43.0651042,29.6614583 43.7057292,29.3828125 44.5546875,29.3828125 C45.4140625,29.3828125 46.0638021,29.6653646 46.5039062,30.2304688 C46.9440104,30.7955729 47.1640625,31.6223958 47.1640625,32.7109375 C47.1640625,33.8098958 46.9440104,34.6445312 46.5039062,35.2148438 C46.0638021,35.7851562 45.4192708,36.0703125 44.5703125,36.0703125 Z M53.8046875,37.15625 C54.4088542,37.15625 54.9466146,37.0442708 55.4179688,36.8203125 C55.8893229,36.5963542 56.2578125,36.2734375 56.5234375,35.8515625 L56.5234375,35.8515625 L56.59375,35.8515625 L56.78125,37 L57.8515625,37 L57.8515625,28.4375 L56.5546875,28.4375 L56.5546875,32.9375 C56.5546875,34.046875 56.3476562,34.8463542 55.9335938,35.3359375 C55.5195312,35.8255208 54.8645833,36.0703125 53.96875,36.0703125 C53.2916667,36.0703125 52.7942708,35.8984375 52.4765625,35.5546875 C52.1588542,35.2109375 52,34.6901042 52,33.9921875 L52,33.9921875 L52,28.4375 L50.6875,28.4375 L50.6875,34.0390625 C50.6875,35.1276042 50.9466146,35.9192708 51.4648438,36.4140625 C51.9830729,36.9088542 52.7630208,37.15625 53.8046875,37.15625 Z M61.8984375,37 L61.8984375,32.40625 C61.8984375,31.5677083 62.1445312,30.8671875 62.6367188,30.3046875 C63.1289062,29.7421875 63.7213542,29.4609375 64.4140625,29.4609375 C64.6848958,29.4609375 64.9973958,29.5 65.3515625,29.578125 L65.3515625,29.578125 L65.53125,28.375 C65.2291667,28.3125 64.8880208,28.28125 64.5078125,28.28125 C63.9713542,28.28125 63.4791667,28.4322917 63.03125,28.734375 C62.5833333,29.0364583 62.2005208,29.4661458 61.8828125,30.0234375 L61.8828125,30.0234375 L61.8203125,30.0234375 L61.671875,28.4375 L60.6015625,28.4375 L60.6015625,37 L61.8984375,37 Z M73.3671875,37.15625 C74.0026042,37.15625 74.5325521,37.0611979 74.9570312,36.8710938 C75.3815104,36.6809896 75.8072917,36.3177083 76.234375,35.78125 L76.234375,35.78125 L76.296875,35.78125 L76.5546875,37 L77.515625,37 L77.515625,31.15625 C77.515625,30.15625 77.2695312,29.4296875 76.7773438,28.9765625 C76.2851562,28.5234375 75.5286458,28.296875 74.5078125,28.296875 C74.0026042,28.296875 73.4986979,28.3619792 72.9960938,28.4921875 C72.4934896,28.6223958 72.03125,28.8020833 71.609375,29.03125 L71.609375,29.03125 L72.0078125,30.0234375 C72.9088542,29.5859375 73.7161458,29.3671875 74.4296875,29.3671875 C75.0651042,29.3671875 75.5273438,29.5273438 75.8164062,29.8476562 C76.1054688,30.1679688 76.25,30.6640625 76.25,31.3359375 L76.25,31.3359375 L76.25,31.8671875 L74.796875,31.9140625 C72.03125,31.9973958 70.6484375,32.9036458 70.6484375,34.6328125 C70.6484375,35.4401042 70.8893229,36.0625 71.3710938,36.5 C71.8528646,36.9375 72.5182292,37.15625 73.3671875,37.15625 Z M73.625,36.0859375 C73.1145833,36.0859375 72.7174479,35.9635417 72.4335938,35.71875 C72.1497396,35.4739583 72.0078125,35.1171875 72.0078125,34.6484375 C72.0078125,34.0494792 72.2356771,33.6080729 72.6914062,33.3242188 C73.1471354,33.0403646 73.890625,32.8802083 74.921875,32.84375 L74.921875,32.84375 L76.21875,32.7890625 L76.21875,33.5625 C76.21875,34.359375 75.9882812,34.9791667 75.5273438,35.421875 C75.0664062,35.8645833 74.4322917,36.0859375 73.625,36.0859375 Z M81.484375,40.84375 L81.484375,37.3203125 C81.484375,36.8723958 81.453125,36.3984375 81.390625,35.8984375 L81.390625,35.8984375 L81.484375,35.8984375 C81.796875,36.3255208 82.1835938,36.6419271 82.6445312,36.8476562 C83.1054688,37.0533854 83.6145833,37.15625 84.171875,37.15625 C85.2864583,37.15625 86.1575521,36.7669271 86.7851562,35.9882812 C87.4127604,35.2096354 87.7265625,34.1171875 87.7265625,32.7109375 C87.7265625,31.3098958 87.4179688,30.2213542 86.8007812,29.4453125 C86.1835938,28.6692708 85.3072917,28.28125 84.171875,28.28125 C83.5989583,28.28125 83.0911458,28.3854167 82.6484375,28.59375 C82.2057292,28.8020833 81.8177083,29.140625 81.484375,29.609375 L81.484375,29.609375 L81.421875,29.609375 L81.2421875,28.4375 L80.1875,28.4375 L80.1875,40.84375 L81.484375,40.84375 Z M84.015625,36.0703125 C83.1302083,36.0703125 82.4869792,35.8111979 82.0859375,35.2929688 C81.6848958,34.7747396 81.484375,33.9140625 81.484375,32.7109375 L81.484375,32.7109375 L81.484375,32.421875 C81.4947917,31.3645833 81.6953125,30.59375 82.0859375,30.109375 C82.4765625,29.625 83.109375,29.3828125 83.984375,29.3828125 C84.7447917,29.3828125 85.3346354,29.6679688 85.7539062,30.2382812 C86.1731771,30.8085938 86.3828125,31.6276042 86.3828125,32.6953125 C86.3828125,33.7473958 86.1731771,34.5729167 85.7539062,35.171875 C85.3346354,35.7708333 84.7552083,36.0703125 84.015625,36.0703125 Z M91.2890625,40.84375 L91.2890625,37.3203125 C91.2890625,36.8723958 91.2578125,36.3984375 91.1953125,35.8984375 L91.1953125,35.8984375 L91.2890625,35.8984375 C91.6015625,36.3255208 91.9882812,36.6419271 92.4492188,36.8476562 C92.9101562,37.0533854 93.4192708,37.15625 93.9765625,37.15625 C95.0911458,37.15625 95.9622396,36.7669271 96.5898438,35.9882812 C97.2174479,35.2096354 97.53125,34.1171875 97.53125,32.7109375 C97.53125,31.3098958 97.2226562,30.2213542 96.6054688,29.4453125 C95.9882812,28.6692708 95.1119792,28.28125 93.9765625,28.28125 C93.4036458,28.28125 92.8958333,28.3854167 92.453125,28.59375 C92.0104167,28.8020833 91.6223958,29.140625 91.2890625,29.609375 L91.2890625,29.609375 L91.2265625,29.609375 L91.046875,28.4375 L89.9921875,28.4375 L89.9921875,40.84375 L91.2890625,40.84375 Z M93.8203125,36.0703125 C92.9348958,36.0703125 92.2916667,35.8111979 91.890625,35.2929688 C91.4895833,34.7747396 91.2890625,33.9140625 91.2890625,32.7109375 L91.2890625,32.7109375 L91.2890625,32.421875 C91.2994792,31.3645833 91.5,30.59375 91.890625,30.109375 C92.28125,29.625 92.9140625,29.3828125 93.7890625,29.3828125 C94.5494792,29.3828125 95.1393229,29.6679688 95.5585938,30.2382812 C95.9778646,30.8085938 96.1875,31.6276042 96.1875,32.6953125 C96.1875,33.7473958 95.9778646,34.5729167 95.5585938,35.171875 C95.1393229,35.7708333 94.5598958,36.0703125 93.8203125,36.0703125 Z M45.1757812,54.15625 C46.2486979,54.15625 47.0820312,53.9401042 47.6757812,53.5078125 C48.2695312,53.0755208 48.5664062,52.4609375 48.5664062,51.6640625 C48.5664062,51.0963542 48.3880208,50.625 48.03125,50.25 C47.6744792,49.875 46.9882812,49.5026042 45.9726562,49.1328125 C45.2330729,48.8567708 44.7330729,48.6458333 44.4726562,48.5 C44.2122396,48.3541667 44.0234375,48.2005208 43.90625,48.0390625 C43.7890625,47.8776042 43.7304688,47.6822917 43.7304688,47.453125 C43.7304688,47.1145833 43.8867188,46.8489583 44.1992188,46.65625 C44.5117188,46.4635417 44.9752604,46.3671875 45.5898438,46.3671875 C46.2877604,46.3671875 47.0664062,46.5442708 47.9257812,46.8984375 L47.9257812,46.8984375 L48.3867188,45.84375 C47.5065104,45.46875 46.6054688,45.28125 45.6835938,45.28125 C44.6940104,45.28125 43.9153646,45.4830729 43.3476562,45.8867188 C42.7799479,46.2903646 42.4960938,46.8411458 42.4960938,47.5390625 C42.4960938,47.9296875 42.578125,48.265625 42.7421875,48.546875 C42.90625,48.828125 43.15625,49.0794271 43.4921875,49.3007812 C43.828125,49.5221354 44.3945312,49.78125 45.1914062,50.078125 C46.0299479,50.4010417 46.59375,50.6809896 46.8828125,50.9179688 C47.171875,51.1549479 47.3164062,51.4401042 47.3164062,51.7734375 C47.3164062,52.2161458 47.1341146,52.5455729 46.7695312,52.7617188 C46.4049479,52.9778646 45.8841146,53.0859375 45.2070312,53.0859375 C44.7695312,53.0859375 44.3151042,53.0260417 43.84375,52.90625 C43.3723958,52.7864583 42.9309896,52.6223958 42.5195312,52.4140625 L42.5195312,52.4140625 L42.5195312,53.6171875 C43.1549479,53.9765625 44.0403646,54.15625 45.1757812,54.15625 Z M54.2929688,54.15625 C54.8710938,54.15625 55.3645833,54.1132812 55.7734375,54.0273438 C56.1822917,53.9414062 56.6158854,53.7994792 57.0742188,53.6015625 L57.0742188,53.6015625 L57.0742188,52.4453125 C56.1731771,52.8307292 55.2617188,53.0234375 54.3398438,53.0234375 C53.4648438,53.0234375 52.7864583,52.7630208 52.3046875,52.2421875 C51.8229167,51.7213542 51.5690104,50.9583333 51.5429688,49.953125 L51.5429688,49.953125 L57.4414062,49.953125 L57.4414062,49.1328125 C57.4414062,47.9765625 57.1289062,47.0455729 56.5039062,46.3398438 C55.8789062,45.6341146 55.0299479,45.28125 53.9570312,45.28125 C52.8111979,45.28125 51.8984375,45.6875 51.21875,46.5 C50.5390625,47.3125 50.1992188,48.4088542 50.1992188,49.7890625 C50.1992188,51.1588542 50.5651042,52.2291667 51.296875,53 C52.0286458,53.7708333 53.0273438,54.15625 54.2929688,54.15625 Z M56.0507812,48.8984375 L51.5742188,48.8984375 C51.6471354,48.1067708 51.8880208,47.4869792 52.296875,47.0390625 C52.7057292,46.5911458 53.2539062,46.3671875 53.9414062,46.3671875 C54.6184896,46.3671875 55.1393229,46.5846354 55.5039062,47.0195312 C55.8684896,47.4544271 56.0507812,48.0807292 56.0507812,48.8984375 L56.0507812,48.8984375 Z M60.9492188,54 L60.9492188,49.40625 C60.9492188,48.5677083 61.1953125,47.8671875 61.6875,47.3046875 C62.1796875,46.7421875 62.7721354,46.4609375 63.4648438,46.4609375 C63.7356771,46.4609375 64.0481771,46.5 64.4023438,46.578125 L64.4023438,46.578125 L64.5820312,45.375 C64.2799479,45.3125 63.9388021,45.28125 63.5585938,45.28125 C63.0221354,45.28125 62.5299479,45.4322917 62.0820312,45.734375 C61.6341146,46.0364583 61.2513021,46.4661458 60.9335938,47.0234375 L60.9335938,47.0234375 L60.8710938,47.0234375 L60.7226562,45.4375 L59.6523438,45.4375 L59.6523438,54 L60.9492188,54 Z M69.5742188,54 L72.8242188,45.4375 L71.4335938,45.4375 C70.3710938,48.3541667 69.6875,50.2460938 69.3828125,51.1132812 C69.078125,51.9804688 68.8971354,52.5520833 68.8398438,52.828125 L68.8398438,52.828125 L68.7773438,52.828125 C68.7044271,52.4739583 68.4596354,51.703125 68.0429688,50.515625 L68.0429688,50.515625 L66.1992188,45.4375 L64.8085938,45.4375 L68.0585938,54 L69.5742188,54 Z M77.8164062,54.15625 C78.3945312,54.15625 78.8880208,54.1132812 79.296875,54.0273438 C79.7057292,53.9414062 80.1393229,53.7994792 80.5976562,53.6015625 L80.5976562,53.6015625 L80.5976562,52.4453125 C79.6966146,52.8307292 78.7851562,53.0234375 77.8632812,53.0234375 C76.9882812,53.0234375 76.3098958,52.7630208 75.828125,52.2421875 C75.3463542,51.7213542 75.0924479,50.9583333 75.0664062,49.953125 L75.0664062,49.953125 L80.9648438,49.953125 L80.9648438,49.1328125 C80.9648438,47.9765625 80.6523438,47.0455729 80.0273438,46.3398438 C79.4023438,45.6341146 78.5533854,45.28125 77.4804688,45.28125 C76.3346354,45.28125 75.421875,45.6875 74.7421875,46.5 C74.0625,47.3125 73.7226562,48.4088542 73.7226562,49.7890625 C73.7226562,51.1588542 74.0885417,52.2291667 74.8203125,53 C75.5520833,53.7708333 76.5507812,54.15625 77.8164062,54.15625 Z M79.5742188,48.8984375 L75.0976562,48.8984375 C75.1705729,48.1067708 75.4114583,47.4869792 75.8203125,47.0390625 C76.2291667,46.5911458 76.7773438,46.3671875 77.4648438,46.3671875 C78.1419271,46.3671875 78.6627604,46.5846354 79.0273438,47.0195312 C79.3919271,47.4544271 79.5742188,48.0807292 79.5742188,48.8984375 L79.5742188,48.8984375 Z M84.4726562,54 L84.4726562,49.40625 C84.4726562,48.5677083 84.71875,47.8671875 85.2109375,47.3046875 C85.703125,46.7421875 86.2955729,46.4609375 86.9882812,46.4609375 C87.2591146,46.4609375 87.5716146,46.5 87.9257812,46.578125 L87.9257812,46.578125 L88.1054688,45.375 C87.8033854,45.3125 87.4622396,45.28125 87.0820312,45.28125 C86.5455729,45.28125 86.0533854,45.4322917 85.6054688,45.734375 C85.1575521,46.0364583 84.7747396,46.4661458 84.4570312,47.0234375 L84.4570312,47.0234375 L84.3945312,47.0234375 L84.2460938,45.4375 L83.1757812,45.4375 L83.1757812,54 L84.4726562,54 Z" id="Yourappserver" fill="#000000" fill-rule="nonzero"></path>
                </g>
                <g id="arrows-1" transform="translate(133.500000, 17.500000)" fill-rule="nonzero">
                    <path id="forward" d="M71.3093429,-4.18091839 L71.7451306,-3.93578777 L79.7451306,0.564212231 L80.5198644,1 L79.7451306,1.43578777 L71.7451306,5.93578777 L71.3093429,6.18091839 L70.8190816,5.30934285 L71.2548694,5.06421223 L77.591,1.5 L-0.5,1.5 L-0.5,0.5 L77.591,0.5 L71.2548694,-3.06421223 L70.8190816,-3.30934285 L71.3093429,-4.18091839 Z" fill="#343434"></path>
                    <path id="back" d="M7.69065715,36.8190816 L8.18091839,37.6906571 L7.74513062,37.9357878 L1.409,41.5 L79.5,41.5 L79.5,42.5 L1.409,42.5 L7.74513062,46.0642122 L8.18091839,46.3093429 L7.69065715,47.1809184 L7.25486938,46.9357878 L-0.74513062,42.4357878 L-1.51986443,42 L-0.74513062,41.5642122 L7.25486938,37.0642122 L7.69065715,36.8190816 Z" fill="#343434"></path>
                    <path d="M21.0224609,55.5 L21.0224609,47.9023438 L20.2119141,47.9023438 L20.2119141,55.5 L21.0224609,55.5 Z M23.1513672,49.2402344 C23.2815755,49.2402344 23.3938802,49.1954753 23.4882812,49.105957 C23.5826823,49.0164388 23.6298828,48.8805339 23.6298828,48.6982422 C23.6298828,48.5159505 23.5826823,48.3808594 23.4882812,48.2929688 C23.3938802,48.2050781 23.2815755,48.1611328 23.1513672,48.1611328 C23.0146484,48.1611328 22.9007161,48.2042643 22.8095703,48.2905273 C22.7184245,48.3767904 22.6728516,48.5126953 22.6728516,48.6982422 C22.6728516,48.8805339 22.7184245,49.0164388 22.8095703,49.105957 C22.9007161,49.1954753 23.0146484,49.2402344 23.1513672,49.2402344 Z M23.5517578,55.5 L23.5517578,50.1484375 L22.7412109,50.1484375 L22.7412109,55.5 L23.5517578,55.5 Z M26.0810547,55.5 L26.0810547,52.6923828 C26.0810547,51.9957682 26.211263,51.4960938 26.4716797,51.1933594 C26.7320964,50.890625 27.1422526,50.7392578 27.7021484,50.7392578 C28.1253255,50.7392578 28.4361979,50.8466797 28.6347656,51.0615234 C28.8333333,51.2763672 28.9326172,51.601888 28.9326172,52.0380859 L28.9326172,52.0380859 L28.9326172,55.5 L29.7431641,55.5 L29.7431641,52.0087891 C29.7431641,51.3251953 29.5804036,50.8279622 29.2548828,50.5170898 C28.929362,50.2062174 28.4443359,50.0507812 27.7998047,50.0507812 C27.4319661,50.0507812 27.0983073,50.1232096 26.7988281,50.2680664 C26.499349,50.4129232 26.2666016,50.6171875 26.1005859,50.8808594 L26.1005859,50.8808594 L26.0615234,50.8808594 L25.9296875,50.1484375 L25.2705078,50.1484375 L25.2705078,55.5 L26.0810547,55.5 Z M32.2089844,55.5 L32.2089844,53.4980469 L32.8193359,52.9707031 L34.7089844,55.5 L35.6904297,55.5 L33.3710938,52.4287109 L35.5390625,50.1484375 L34.5771484,50.1484375 L32.8486328,51.9794922 C32.5621745,52.3017578 32.3489583,52.5621745 32.2089844,52.7607422 L32.2089844,52.7607422 L32.1699219,52.7607422 C32.1959635,52.3863932 32.2089844,52.1097005 32.2089844,51.9306641 L32.2089844,51.9306641 L32.2089844,47.9023438 L31.4082031,47.9023438 L31.4082031,55.5 L32.2089844,55.5 Z M40.2998047,57.0380859 L40.2998047,56.3984375 L35.7783203,56.3984375 L35.7783203,57.0380859 L40.2998047,57.0380859 Z M42.7509766,55.5976562 C42.8876953,55.5976562 43.0415039,55.5838216 43.2124023,55.5561523 C43.3833008,55.5284831 43.5126953,55.4934896 43.6005859,55.4511719 L43.6005859,55.4511719 L43.6005859,54.8310547 C43.5224609,54.8538411 43.4166667,54.8758138 43.2832031,54.8969727 C43.1497396,54.9181315 43.0113932,54.9287109 42.8681641,54.9287109 C42.601237,54.9287109 42.391276,54.8424479 42.2382812,54.6699219 C42.0852865,54.4973958 42.0087891,54.25 42.0087891,53.9277344 L42.0087891,53.9277344 L42.0087891,50.7783203 L43.5615234,50.7783203 L43.5615234,50.1484375 L42.0087891,50.1484375 L42.0087891,48.9082031 L41.5400391,48.9082031 L41.1982422,50.0507812 L40.4316406,50.3876953 L40.4316406,50.7783203 L41.1982422,50.7783203 L41.1982422,53.9619141 C41.1982422,55.0524089 41.7158203,55.5976562 42.7509766,55.5976562 Z M46.8085938,55.5976562 C47.5833333,55.5976562 48.1904297,55.3527018 48.6298828,54.862793 C49.0693359,54.3728841 49.2890625,53.6917318 49.2890625,52.8193359 C49.2890625,51.9697266 49.0685221,51.2958984 48.6274414,50.7978516 C48.1863607,50.2998047 47.5914714,50.0507812 46.8427734,50.0507812 C46.0680339,50.0507812 45.4625651,50.2941081 45.0263672,50.7807617 C44.5901693,51.2674154 44.3720703,51.9469401 44.3720703,52.8193359 C44.3720703,53.382487 44.4729818,53.8740234 44.6748047,54.2939453 C44.8766276,54.7138672 45.1630859,55.0361328 45.5341797,55.2607422 C45.9052734,55.4853516 46.3300781,55.5976562 46.8085938,55.5976562 Z M46.828125,54.9189453 C46.297526,54.9189453 45.8955078,54.7399089 45.6220703,54.3818359 C45.3486328,54.023763 45.2119141,53.5029297 45.2119141,52.8193359 C45.2119141,52.1292318 45.3470052,51.610026 45.6171875,51.2617188 C45.8873698,50.9134115 46.2877604,50.7392578 46.8183594,50.7392578 C47.3554688,50.7392578 47.761556,50.9158529 48.0366211,51.269043 C48.3116862,51.6222331 48.4492188,52.1389974 48.4492188,52.8193359 C48.4492188,53.5061849 48.3116862,54.027832 48.0366211,54.3842773 C47.761556,54.7407227 47.358724,54.9189453 46.828125,54.9189453 Z M51.5107422,55.5 L51.5107422,53.4980469 L52.1210938,52.9707031 L54.0107422,55.5 L54.9921875,55.5 L52.6728516,52.4287109 L54.8408203,50.1484375 L53.8789062,50.1484375 L52.1503906,51.9794922 C51.8639323,52.3017578 51.6507161,52.5621745 51.5107422,52.7607422 L51.5107422,52.7607422 L51.4716797,52.7607422 C51.4977214,52.3863932 51.5107422,52.1097005 51.5107422,51.9306641 L51.5107422,51.9306641 L51.5107422,47.9023438 L50.7099609,47.9023438 L50.7099609,55.5 L51.5107422,55.5 Z M58.0195312,55.5976562 C58.3808594,55.5976562 58.6892904,55.5708008 58.9448242,55.5170898 C59.2003581,55.4633789 59.4713542,55.3746745 59.7578125,55.2509766 L59.7578125,55.2509766 L59.7578125,54.5283203 C59.1946615,54.7692057 58.625,54.8896484 58.0488281,54.8896484 C57.5019531,54.8896484 57.0779622,54.726888 56.7768555,54.4013672 C56.4757487,54.0758464 56.3170573,53.5989583 56.3007812,52.9707031 L56.3007812,52.9707031 L59.9873047,52.9707031 L59.9873047,52.4580078 C59.9873047,51.7353516 59.7919922,51.1534831 59.4013672,50.7124023 C59.0107422,50.2713216 58.4801432,50.0507812 57.8095703,50.0507812 C57.0934245,50.0507812 56.5229492,50.3046875 56.0981445,50.8125 C55.6733398,51.3203125 55.4609375,52.0055339 55.4609375,52.8681641 C55.4609375,53.7242839 55.6896159,54.3932292 56.1469727,54.875 C56.6043294,55.3567708 57.2285156,55.5976562 58.0195312,55.5976562 Z M59.1181641,52.3115234 L56.3203125,52.3115234 C56.3658854,51.8167318 56.5164388,51.429362 56.7719727,51.1494141 C57.0275065,50.8694661 57.3701172,50.7294922 57.7998047,50.7294922 C58.2229818,50.7294922 58.5485026,50.8653971 58.7763672,51.137207 C59.0042318,51.4090169 59.1181641,51.8004557 59.1181641,52.3115234 L59.1181641,52.3115234 Z M62.1796875,55.5 L62.1796875,52.6923828 C62.1796875,51.9957682 62.3098958,51.4960938 62.5703125,51.1933594 C62.8307292,50.890625 63.2408854,50.7392578 63.8007812,50.7392578 C64.2239583,50.7392578 64.5348307,50.8466797 64.7333984,51.0615234 C64.9319661,51.2763672 65.03125,51.601888 65.03125,52.0380859 L65.03125,52.0380859 L65.03125,55.5 L65.8417969,55.5 L65.8417969,52.0087891 C65.8417969,51.3251953 65.6790365,50.8279622 65.3535156,50.5170898 C65.0279948,50.2062174 64.5429688,50.0507812 63.8984375,50.0507812 C63.530599,50.0507812 63.1969401,50.1232096 62.8974609,50.2680664 C62.5979818,50.4129232 62.3652344,50.6171875 62.1992188,50.8808594 L62.1992188,50.8808594 L62.1601562,50.8808594 L62.0283203,50.1484375 L61.3691406,50.1484375 L61.3691406,55.5 L62.1796875,55.5 Z" id="link_token" fill="#000000"></path>
                    <path d="M11.6386719,285.902344 L11.6386719,283.700195 C11.6386719,283.420247 11.6191406,283.124023 11.5800781,282.811523 L11.5800781,282.811523 L11.6386719,282.811523 C11.8339844,283.078451 12.0756836,283.276204 12.3637695,283.404785 C12.6518555,283.533366 12.9700521,283.597656 13.3183594,283.597656 C14.014974,283.597656 14.5594076,283.354329 14.9516602,282.867676 C15.3439128,282.381022 15.5400391,281.698242 15.5400391,280.819336 C15.5400391,279.943685 15.347168,279.263346 14.9614258,278.77832 C14.5756836,278.293294 14.0279948,278.050781 13.3183594,278.050781 C12.9602865,278.050781 12.6429036,278.115885 12.3662109,278.246094 C12.0895182,278.376302 11.8470052,278.587891 11.6386719,278.880859 L11.6386719,278.880859 L11.5996094,278.880859 L11.4873047,278.148438 L10.828125,278.148438 L10.828125,285.902344 L11.6386719,285.902344 Z M13.2207031,282.918945 C12.6673177,282.918945 12.2652995,282.756999 12.0146484,282.433105 C11.7639974,282.109212 11.6386719,281.571289 11.6386719,280.819336 L11.6386719,280.819336 L11.6386719,280.638672 C11.6451823,279.977865 11.7705078,279.496094 12.0146484,279.193359 C12.2587891,278.890625 12.6542969,278.739258 13.2011719,278.739258 C13.6764323,278.739258 14.0450846,278.91748 14.3071289,279.273926 C14.5691732,279.630371 14.7001953,280.142253 14.7001953,280.80957 C14.7001953,281.467122 14.5691732,281.983073 14.3071289,282.357422 C14.0450846,282.731771 13.6829427,282.918945 13.2207031,282.918945 Z M18.8457031,283.597656 C19.2233073,283.597656 19.5594076,283.527669 19.8540039,283.387695 C20.1486003,283.247721 20.3789062,283.045898 20.5449219,282.782227 L20.5449219,282.782227 L20.5888672,282.782227 L20.7060547,283.5 L21.375,283.5 L21.375,278.148438 L20.5644531,278.148438 L20.5644531,280.960938 C20.5644531,281.654297 20.4350586,282.153971 20.1762695,282.459961 C19.9174805,282.765951 19.508138,282.918945 18.9482422,282.918945 C18.5250651,282.918945 18.2141927,282.811523 18.015625,282.59668 C17.8170573,282.381836 17.7177734,282.056315 17.7177734,281.620117 L17.7177734,281.620117 L17.7177734,278.148438 L16.8974609,278.148438 L16.8974609,281.649414 C16.8974609,282.329753 17.0594076,282.824544 17.3833008,283.133789 C17.707194,283.443034 18.1946615,283.597656 18.8457031,283.597656 Z M25.5839844,283.597656 C26.280599,283.597656 26.8250326,283.354329 27.2172852,282.867676 C27.6095378,282.381022 27.8056641,281.698242 27.8056641,280.819336 C27.8056641,279.94043 27.6111654,279.260905 27.222168,278.780762 C26.8331706,278.300618 26.2871094,278.060547 25.5839844,278.060547 C24.8417969,278.060547 24.281901,278.327474 23.9042969,278.861328 L23.9042969,278.861328 L23.8652344,278.861328 C23.891276,278.532552 23.9042969,278.161458 23.9042969,277.748047 L23.9042969,277.748047 L23.9042969,275.902344 L23.09375,275.902344 L23.09375,283.5 L23.6748047,283.5 L23.8457031,282.811523 L23.9042969,282.811523 C24.0996094,283.078451 24.3413086,283.276204 24.6293945,283.404785 C24.9174805,283.533366 25.2356771,283.597656 25.5839844,283.597656 Z M25.4863281,282.918945 C24.9329427,282.918945 24.5309245,282.756999 24.2802734,282.433105 C24.0296224,282.109212 23.9042969,281.571289 23.9042969,280.819336 C23.9042969,280.067383 24.0263672,279.532715 24.2705078,279.215332 C24.5146484,278.897949 24.9134115,278.739258 25.4667969,278.739258 C25.9778646,278.739258 26.3554688,278.910156 26.5996094,279.251953 C26.84375,279.59375 26.9658203,280.112956 26.9658203,280.80957 C26.9658203,281.489909 26.84375,282.011556 26.5996094,282.374512 C26.3554688,282.737467 25.984375,282.918945 25.4863281,282.918945 Z M30.0322266,283.5 L30.0322266,275.902344 L29.2216797,275.902344 L29.2216797,283.5 L30.0322266,283.5 Z M32.1611328,277.240234 C32.2913411,277.240234 32.4036458,277.195475 32.4980469,277.105957 C32.5924479,277.016439 32.6396484,276.880534 32.6396484,276.698242 C32.6396484,276.515951 32.5924479,276.380859 32.4980469,276.292969 C32.4036458,276.205078 32.2913411,276.161133 32.1611328,276.161133 C32.0244141,276.161133 31.9104818,276.204264 31.8193359,276.290527 C31.7281901,276.37679 31.6826172,276.512695 31.6826172,276.698242 C31.6826172,276.880534 31.7281901,277.016439 31.8193359,277.105957 C31.9104818,277.195475 32.0244141,277.240234 32.1611328,277.240234 Z M32.5615234,283.5 L32.5615234,278.148438 L31.7509766,278.148438 L31.7509766,283.5 L32.5615234,283.5 Z M36.4189453,283.597656 C36.9625651,283.597656 37.4134115,283.504883 37.7714844,283.319336 L37.7714844,283.319336 L37.7714844,282.601562 C37.3027344,282.79362 36.8453776,282.889648 36.3994141,282.889648 C35.8785807,282.889648 35.4855143,282.713867 35.2202148,282.362305 C34.9549154,282.010742 34.8222656,281.506185 34.8222656,280.848633 C34.8222656,279.461914 35.3658854,278.768555 36.453125,278.768555 C36.6158854,278.768555 36.8030599,278.792155 37.0146484,278.839355 C37.226237,278.886556 37.4215495,278.945964 37.6005859,279.017578 L37.6005859,279.017578 L37.8496094,278.329102 C37.703125,278.254232 37.5013021,278.189128 37.2441406,278.133789 C36.9869792,278.078451 36.7298177,278.050781 36.4726562,278.050781 C35.6751302,278.050781 35.0607096,278.294922 34.6293945,278.783203 C34.1980794,279.271484 33.9824219,279.963216 33.9824219,280.858398 C33.9824219,281.730794 34.1948242,282.405436 34.6196289,282.882324 C35.0444336,283.359212 35.6442057,283.597656 36.4189453,283.597656 Z M42.6835938,285.038086 L42.6835938,284.398438 L38.1621094,284.398438 L38.1621094,285.038086 L42.6835938,285.038086 Z M45.1347656,283.597656 C45.2714844,283.597656 45.425293,283.583822 45.5961914,283.556152 C45.7670898,283.528483 45.8964844,283.49349 45.984375,283.451172 L45.984375,283.451172 L45.984375,282.831055 C45.90625,282.853841 45.8004557,282.875814 45.6669922,282.896973 C45.5335286,282.918132 45.3951823,282.928711 45.2519531,282.928711 C44.985026,282.928711 44.7750651,282.842448 44.6220703,282.669922 C44.4690755,282.497396 44.3925781,282.25 44.3925781,281.927734 L44.3925781,281.927734 L44.3925781,278.77832 L45.9453125,278.77832 L45.9453125,278.148438 L44.3925781,278.148438 L44.3925781,276.908203 L43.9238281,276.908203 L43.5820312,278.050781 L42.8154297,278.387695 L42.8154297,278.77832 L43.5820312,278.77832 L43.5820312,281.961914 C43.5820312,283.052409 44.0996094,283.597656 45.1347656,283.597656 Z M49.1923828,283.597656 C49.9671224,283.597656 50.5742188,283.352702 51.0136719,282.862793 C51.453125,282.372884 51.6728516,281.691732 51.6728516,280.819336 C51.6728516,279.969727 51.4523112,279.295898 51.0112305,278.797852 C50.5701497,278.299805 49.9752604,278.050781 49.2265625,278.050781 C48.4518229,278.050781 47.8463542,278.294108 47.4101562,278.780762 C46.9739583,279.267415 46.7558594,279.94694 46.7558594,280.819336 C46.7558594,281.382487 46.8567708,281.874023 47.0585938,282.293945 C47.2604167,282.713867 47.546875,283.036133 47.9179688,283.260742 C48.2890625,283.485352 48.7138672,283.597656 49.1923828,283.597656 Z M49.2119141,282.918945 C48.6813151,282.918945 48.2792969,282.739909 48.0058594,282.381836 C47.7324219,282.023763 47.5957031,281.50293 47.5957031,280.819336 C47.5957031,280.129232 47.7307943,279.610026 48.0009766,279.261719 C48.2711589,278.913411 48.6715495,278.739258 49.2021484,278.739258 C49.7392578,278.739258 50.1453451,278.915853 50.4204102,279.269043 C50.6954753,279.622233 50.8330078,280.138997 50.8330078,280.819336 C50.8330078,281.506185 50.6954753,282.027832 50.4204102,282.384277 C50.1453451,282.740723 49.742513,282.918945 49.2119141,282.918945 Z M53.8945312,283.5 L53.8945312,281.498047 L54.5048828,280.970703 L56.3945312,283.5 L57.3759766,283.5 L55.0566406,280.428711 L57.2246094,278.148438 L56.2626953,278.148438 L54.5341797,279.979492 C54.2477214,280.301758 54.0345052,280.562174 53.8945312,280.760742 L53.8945312,280.760742 L53.8554688,280.760742 C53.8815104,280.386393 53.8945312,280.109701 53.8945312,279.930664 L53.8945312,279.930664 L53.8945312,275.902344 L53.09375,275.902344 L53.09375,283.5 L53.8945312,283.5 Z M60.4033203,283.597656 C60.7646484,283.597656 61.0730794,283.570801 61.3286133,283.51709 C61.5841471,283.463379 61.8551432,283.374674 62.1416016,283.250977 L62.1416016,283.250977 L62.1416016,282.52832 C61.5784505,282.769206 61.0087891,282.889648 60.4326172,282.889648 C59.8857422,282.889648 59.4617513,282.726888 59.1606445,282.401367 C58.8595378,282.075846 58.7008464,281.598958 58.6845703,280.970703 L58.6845703,280.970703 L62.3710938,280.970703 L62.3710938,280.458008 C62.3710938,279.735352 62.1757812,279.153483 61.7851562,278.712402 C61.3945312,278.271322 60.8639323,278.050781 60.1933594,278.050781 C59.4772135,278.050781 58.9067383,278.304688 58.4819336,278.8125 C58.0571289,279.320312 57.8447266,280.005534 57.8447266,280.868164 C57.8447266,281.724284 58.0734049,282.393229 58.5307617,282.875 C58.9881185,283.356771 59.6123047,283.597656 60.4033203,283.597656 Z M61.5019531,280.311523 L58.7041016,280.311523 C58.7496745,279.816732 58.9002279,279.429362 59.1557617,279.149414 C59.4112956,278.869466 59.7539062,278.729492 60.1835938,278.729492 C60.6067708,278.729492 60.9322917,278.865397 61.1601562,279.137207 C61.3880208,279.409017 61.5019531,279.800456 61.5019531,280.311523 L61.5019531,280.311523 Z M64.5634766,283.5 L64.5634766,280.692383 C64.5634766,279.995768 64.6936849,279.496094 64.9541016,279.193359 C65.2145182,278.890625 65.6246745,278.739258 66.1845703,278.739258 C66.6077474,278.739258 66.9186198,278.84668 67.1171875,279.061523 C67.3157552,279.276367 67.4150391,279.601888 67.4150391,280.038086 L67.4150391,280.038086 L67.4150391,283.5 L68.2255859,283.5 L68.2255859,280.008789 C68.2255859,279.325195 68.0628255,278.827962 67.7373047,278.51709 C67.4117839,278.206217 66.9267578,278.050781 66.2822266,278.050781 C65.914388,278.050781 65.5807292,278.12321 65.28125,278.268066 C64.9817708,278.412923 64.7490234,278.617188 64.5830078,278.880859 L64.5830078,278.880859 L64.5439453,278.880859 L64.4121094,278.148438 L63.7529297,278.148438 L63.7529297,283.5 L64.5634766,283.5 Z" id="public_token" fill="#000000"></path>
                </g>
                <g id="arrows-2" transform="translate(351.500000, 17.500000)" fill="#343434" fill-rule="nonzero">
                    <path id="forward" d="M71.3093429,-4.18091839 L71.7451306,-3.93578777 L79.7451306,0.564212231 L80.5198644,1 L79.7451306,1.43578777 L71.7451306,5.93578777 L71.3093429,6.18091839 L70.8190816,5.30934285 L71.2548694,5.06421223 L77.591,1.5 L-0.5,1.5 L-0.5,0.5 L77.591,0.5 L71.2548694,-3.06421223 L70.8190816,-3.30934285 L71.3093429,-4.18091839 Z"></path>
                    <path id="back" d="M7.69065715,36.8190816 L8.18091839,37.6906571 L7.74513062,37.9357878 L1.409,41.5 L79.5,41.5 L79.5,42.5 L1.409,42.5 L7.74513062,46.0642122 L8.18091839,46.3093429 L7.69065715,47.1809184 L7.25486938,46.9357878 L-0.74513062,42.4357878 L-1.51986443,42 L-0.74513062,41.5642122 L7.25486938,37.0642122 L7.69065715,36.8190816 Z"></path>
                </g>
            </g>
            <g id="complete-validation-copy-2" transform="translate(47.000000, 291.000000)">
                <g id="Plaid-1" transform="translate(435.000000, 1.000000)">
                    <rect id="Rectangle-Copy-2" stroke="#343434" x="0" y="0" width="129" height="78" rx="4"></rect>
                    <path d="M49.1835938,45 L49.1835938,40.5078125 L50.5273438,40.5078125 C51.9960938,40.5078125 53.125,40.1966146 53.9140625,39.5742188 C54.703125,38.9518229 55.0976562,38.0625 55.0976562,36.90625 C55.0976562,34.6875 53.6705729,33.578125 50.8164062,33.578125 L50.8164062,33.578125 L47.8554688,33.578125 L47.8554688,45 L49.1835938,45 Z M50.3789062,39.3671875 L49.1835938,39.3671875 L49.1835938,34.7265625 L50.6679688,34.7265625 C51.7148438,34.7265625 52.4856771,34.9114583 52.9804688,35.28125 C53.4752604,35.6510417 53.7226562,36.2135417 53.7226562,36.96875 C53.7226562,37.8072917 53.4596354,38.4166667 52.9335938,38.796875 C52.4075521,39.1770833 51.5559896,39.3671875 50.3789062,39.3671875 L50.3789062,39.3671875 Z M58.5898438,45 L58.5898438,32.84375 L57.2929688,32.84375 L57.2929688,45 L58.5898438,45 Z M63.4179688,45.15625 C64.0533854,45.15625 64.5833333,45.0611979 65.0078125,44.8710938 C65.4322917,44.6809896 65.8580729,44.3177083 66.2851562,43.78125 L66.2851562,43.78125 L66.3476562,43.78125 L66.6054688,45 L67.5664062,45 L67.5664062,39.15625 C67.5664062,38.15625 67.3203125,37.4296875 66.828125,36.9765625 C66.3359375,36.5234375 65.5794271,36.296875 64.5585938,36.296875 C64.0533854,36.296875 63.5494792,36.3619792 63.046875,36.4921875 C62.5442708,36.6223958 62.0820312,36.8020833 61.6601562,37.03125 L61.6601562,37.03125 L62.0585938,38.0234375 C62.9596354,37.5859375 63.7669271,37.3671875 64.4804688,37.3671875 C65.1158854,37.3671875 65.578125,37.5273438 65.8671875,37.8476562 C66.15625,38.1679688 66.3007812,38.6640625 66.3007812,39.3359375 L66.3007812,39.3359375 L66.3007812,39.8671875 L64.8476562,39.9140625 C62.0820312,39.9973958 60.6992188,40.9036458 60.6992188,42.6328125 C60.6992188,43.4401042 60.9401042,44.0625 61.421875,44.5 C61.9036458,44.9375 62.5690104,45.15625 63.4179688,45.15625 Z M63.6757812,44.0859375 C63.1653646,44.0859375 62.7682292,43.9635417 62.484375,43.71875 C62.2005208,43.4739583 62.0585938,43.1171875 62.0585938,42.6484375 C62.0585938,42.0494792 62.2864583,41.6080729 62.7421875,41.3242188 C63.1979167,41.0403646 63.9414062,40.8802083 64.9726562,40.84375 L64.9726562,40.84375 L66.2695312,40.7890625 L66.2695312,41.5625 C66.2695312,42.359375 66.0390625,42.9791667 65.578125,43.421875 C65.1171875,43.8645833 64.4830729,44.0859375 63.6757812,44.0859375 Z M70.8945312,34.984375 C71.1028646,34.984375 71.2825521,34.9127604 71.4335938,34.7695312 C71.5846354,34.6263021 71.6601562,34.4088542 71.6601562,34.1171875 C71.6601562,33.8255208 71.5846354,33.609375 71.4335938,33.46875 C71.2825521,33.328125 71.1028646,33.2578125 70.8945312,33.2578125 C70.6757812,33.2578125 70.4934896,33.3268229 70.3476562,33.4648438 C70.2018229,33.6028646 70.1289062,33.8203125 70.1289062,34.1171875 C70.1289062,34.4088542 70.2018229,34.6263021 70.3476562,34.7695312 C70.4934896,34.9127604 70.6757812,34.984375 70.8945312,34.984375 Z M71.5351562,45 L71.5351562,36.4375 L70.2382812,36.4375 L70.2382812,45 L71.5351562,45 Z M77.3554688,45.15625 C78.5481771,45.15625 79.4440104,44.7213542 80.0429688,43.8515625 L80.0429688,43.8515625 L80.1132812,43.8515625 L80.2851562,45 L81.3398438,45 L81.3398438,32.84375 L80.0429688,32.84375 L80.0429688,36.328125 L80.0742188,36.9296875 L80.1289062,37.546875 L80.0273438,37.546875 C79.4075521,36.703125 78.5169271,36.28125 77.3554688,36.28125 C76.2408854,36.28125 75.3710938,36.671875 74.7460938,37.453125 C74.1210938,38.234375 73.8085938,39.3307292 73.8085938,40.7421875 C73.8085938,42.1536458 74.1197917,43.2421875 74.7421875,44.0078125 C75.3645833,44.7734375 76.2356771,45.15625 77.3554688,45.15625 Z M77.5195312,44.0703125 C76.7434896,44.0703125 76.1549479,43.7916667 75.7539062,43.234375 C75.3528646,42.6770833 75.1523438,41.8515625 75.1523438,40.7578125 C75.1523438,39.6796875 75.3541667,38.8450521 75.7578125,38.2539062 C76.1614583,37.6627604 76.7434896,37.3671875 77.5039062,37.3671875 C78.3893229,37.3671875 79.0338542,37.6263021 79.4375,38.1445312 C79.8411458,38.6627604 80.0429688,39.5286458 80.0429688,40.7421875 L80.0429688,40.7421875 L80.0429688,41.015625 C80.0429688,42.0885417 79.84375,42.8658854 79.4453125,43.3476562 C79.046875,43.8294271 78.4049479,44.0703125 77.5195312,44.0703125 Z" id="Plaid" fill="#000000" fill-rule="nonzero"></path>
                </g>
                <g id="Customers-1" transform="translate(218.000000, 0.000000)">
                    <rect id="Rectangle-Copy" stroke="#343434" x="0" y="0" width="129" height="78" rx="4"></rect>
                    <path d="M46.5625,37 L46.5625,29.734375 C46.5625,28.6302083 46.5260417,27.6770833 46.453125,26.875 L46.453125,26.875 L46.515625,26.875 L50.390625,37 L51.4609375,37 L55.3671875,26.890625 L55.4296875,26.890625 C55.3567708,27.8802083 55.3203125,28.796875 55.3203125,29.640625 L55.3203125,29.640625 L55.3203125,37 L56.6484375,37 L56.6484375,25.578125 L54.6640625,25.578125 L51.015625,35 L50.953125,35 L47.3359375,25.578125 L45.3359375,25.578125 L45.3359375,37 L46.5625,37 Z M63.0078125,37.15625 C64.2473958,37.15625 65.21875,36.7643229 65.921875,35.9804688 C66.625,35.1966146 66.9765625,34.1067708 66.9765625,32.7109375 C66.9765625,31.3515625 66.6236979,30.2734375 65.9179688,29.4765625 C65.2122396,28.6796875 64.2604167,28.28125 63.0625,28.28125 C61.8229167,28.28125 60.8541667,28.6705729 60.15625,29.4492188 C59.4583333,30.2278646 59.109375,31.3151042 59.109375,32.7109375 C59.109375,33.6119792 59.2708333,34.3984375 59.59375,35.0703125 C59.9166667,35.7421875 60.375,36.2578125 60.96875,36.6171875 C61.5625,36.9765625 62.2421875,37.15625 63.0078125,37.15625 Z M63.0390625,36.0703125 C62.1901042,36.0703125 61.546875,35.7838542 61.109375,35.2109375 C60.671875,34.6380208 60.453125,33.8046875 60.453125,32.7109375 C60.453125,31.6067708 60.6692708,30.7760417 61.1015625,30.21875 C61.5338542,29.6614583 62.1744792,29.3828125 63.0234375,29.3828125 C63.8828125,29.3828125 64.5325521,29.6653646 64.9726562,30.2304688 C65.4127604,30.7955729 65.6328125,31.6223958 65.6328125,32.7109375 C65.6328125,33.8098958 65.4127604,34.6445312 64.9726562,35.2148438 C64.5325521,35.7851562 63.8880208,36.0703125 63.0390625,36.0703125 Z M72.671875,37.15625 C73.9114583,37.15625 74.8828125,36.7643229 75.5859375,35.9804688 C76.2890625,35.1966146 76.640625,34.1067708 76.640625,32.7109375 C76.640625,31.3515625 76.2877604,30.2734375 75.5820312,29.4765625 C74.8763021,28.6796875 73.9244792,28.28125 72.7265625,28.28125 C71.4869792,28.28125 70.5182292,28.6705729 69.8203125,29.4492188 C69.1223958,30.2278646 68.7734375,31.3151042 68.7734375,32.7109375 C68.7734375,33.6119792 68.9348958,34.3984375 69.2578125,35.0703125 C69.5807292,35.7421875 70.0390625,36.2578125 70.6328125,36.6171875 C71.2265625,36.9765625 71.90625,37.15625 72.671875,37.15625 Z M72.703125,36.0703125 C71.8541667,36.0703125 71.2109375,35.7838542 70.7734375,35.2109375 C70.3359375,34.6380208 70.1171875,33.8046875 70.1171875,32.7109375 C70.1171875,31.6067708 70.3333333,30.7760417 70.765625,30.21875 C71.1979167,29.6614583 71.8385417,29.3828125 72.6875,29.3828125 C73.546875,29.3828125 74.1966146,29.6653646 74.6367188,30.2304688 C75.0768229,30.7955729 75.296875,31.6223958 75.296875,32.7109375 C75.296875,33.8098958 75.0768229,34.6445312 74.6367188,35.2148438 C74.1966146,35.7851562 73.5520833,36.0703125 72.703125,36.0703125 Z M81.984375,37 L85.234375,28.4375 L83.84375,28.4375 C82.78125,31.3541667 82.0976562,33.2460938 81.7929688,34.1132812 C81.4882812,34.9804688 81.3072917,35.5520833 81.25,35.828125 L81.25,35.828125 L81.1875,35.828125 C81.1145833,35.4739583 80.8697917,34.703125 80.453125,33.515625 L80.453125,33.515625 L78.609375,28.4375 L77.21875,28.4375 L80.46875,37 L81.984375,37 Z M30.3007812,54.15625 C31.4622396,54.15625 32.4388021,54.0078125 33.2304688,53.7109375 L33.2304688,53.7109375 L33.2304688,52.546875 C32.2096354,52.8333333 31.3007812,52.9765625 30.5039062,52.9765625 C29.2070312,52.9765625 28.2083333,52.5690104 27.5078125,51.7539062 C26.8072917,50.9388021 26.4570312,49.7838542 26.4570312,48.2890625 C26.4570312,46.8359375 26.8203125,45.6914062 27.546875,44.8554688 C28.2734375,44.0195312 29.2643229,43.6015625 30.5195312,43.6015625 C31.3841146,43.6015625 32.2486979,43.8046875 33.1132812,44.2109375 L33.1132812,44.2109375 L33.6757812,43.0703125 C32.7799479,42.6328125 31.7330729,42.4140625 30.5351562,42.4140625 C29.4101562,42.4140625 28.4322917,42.6536458 27.6015625,43.1328125 C26.7708333,43.6119792 26.1354167,44.2942708 25.6953125,45.1796875 C25.2552083,46.0651042 25.0351562,47.0963542 25.0351562,48.2734375 C25.0351562,50.1536458 25.4921875,51.6041667 26.40625,52.625 C27.3203125,53.6458333 28.6184896,54.15625 30.3007812,54.15625 Z M38.5507812,54.15625 C39.1549479,54.15625 39.6927083,54.0442708 40.1640625,53.8203125 C40.6354167,53.5963542 41.0039062,53.2734375 41.2695312,52.8515625 L41.2695312,52.8515625 L41.3398438,52.8515625 L41.5273438,54 L42.5976562,54 L42.5976562,45.4375 L41.3007812,45.4375 L41.3007812,49.9375 C41.3007812,51.046875 41.09375,51.8463542 40.6796875,52.3359375 C40.265625,52.8255208 39.6106771,53.0703125 38.7148438,53.0703125 C38.0377604,53.0703125 37.5403646,52.8984375 37.2226562,52.5546875 C36.9049479,52.2109375 36.7460938,51.6901042 36.7460938,50.9921875 L36.7460938,50.9921875 L36.7460938,45.4375 L35.4335938,45.4375 L35.4335938,51.0390625 C35.4335938,52.1276042 35.6927083,52.9192708 36.2109375,53.4140625 C36.7291667,53.9088542 37.5091146,54.15625 38.5507812,54.15625 Z M47.4804688,54.15625 C48.5533854,54.15625 49.3867188,53.9401042 49.9804688,53.5078125 C50.5742188,53.0755208 50.8710938,52.4609375 50.8710938,51.6640625 C50.8710938,51.0963542 50.6927083,50.625 50.3359375,50.25 C49.9791667,49.875 49.2929688,49.5026042 48.2773438,49.1328125 C47.5377604,48.8567708 47.0377604,48.6458333 46.7773438,48.5 C46.5169271,48.3541667 46.328125,48.2005208 46.2109375,48.0390625 C46.09375,47.8776042 46.0351562,47.6822917 46.0351562,47.453125 C46.0351562,47.1145833 46.1914062,46.8489583 46.5039062,46.65625 C46.8164062,46.4635417 47.2799479,46.3671875 47.8945312,46.3671875 C48.5924479,46.3671875 49.3710938,46.5442708 50.2304688,46.8984375 L50.2304688,46.8984375 L50.6914062,45.84375 C49.8111979,45.46875 48.9101562,45.28125 47.9882812,45.28125 C46.9986979,45.28125 46.2200521,45.4830729 45.6523438,45.8867188 C45.0846354,46.2903646 44.8007812,46.8411458 44.8007812,47.5390625 C44.8007812,47.9296875 44.8828125,48.265625 45.046875,48.546875 C45.2109375,48.828125 45.4609375,49.0794271 45.796875,49.3007812 C46.1328125,49.5221354 46.6992188,49.78125 47.4960938,50.078125 C48.3346354,50.4010417 48.8984375,50.6809896 49.1875,50.9179688 C49.4765625,51.1549479 49.6210938,51.4401042 49.6210938,51.7734375 C49.6210938,52.2161458 49.4388021,52.5455729 49.0742188,52.7617188 C48.7096354,52.9778646 48.1888021,53.0859375 47.5117188,53.0859375 C47.0742188,53.0859375 46.6197917,53.0260417 46.1484375,52.90625 C45.6770833,52.7864583 45.2356771,52.6223958 44.8242188,52.4140625 L44.8242188,52.4140625 L44.8242188,53.6171875 C45.4596354,53.9765625 46.3450521,54.15625 47.4804688,54.15625 Z M55.5585938,54.15625 C55.7773438,54.15625 56.0234375,54.1341146 56.296875,54.0898438 C56.5703125,54.0455729 56.7773438,53.9895833 56.9179688,53.921875 L56.9179688,53.921875 L56.9179688,52.9296875 C56.7929688,52.9661458 56.6236979,53.0013021 56.4101562,53.0351562 C56.1966146,53.0690104 55.9752604,53.0859375 55.7460938,53.0859375 C55.3190104,53.0859375 54.9830729,52.9479167 54.7382812,52.671875 C54.4934896,52.3958333 54.3710938,52 54.3710938,51.484375 L54.3710938,51.484375 L54.3710938,46.4453125 L56.8554688,46.4453125 L56.8554688,45.4375 L54.3710938,45.4375 L54.3710938,43.453125 L53.6210938,43.453125 L53.0742188,45.28125 L51.8476562,45.8203125 L51.8476562,46.4453125 L53.0742188,46.4453125 L53.0742188,51.5390625 C53.0742188,53.2838542 53.9023438,54.15625 55.5585938,54.15625 Z M62.0507812,54.15625 C63.2903646,54.15625 64.2617188,53.7643229 64.9648438,52.9804688 C65.6679688,52.1966146 66.0195312,51.1067708 66.0195312,49.7109375 C66.0195312,48.3515625 65.6666667,47.2734375 64.9609375,46.4765625 C64.2552083,45.6796875 63.3033854,45.28125 62.1054688,45.28125 C60.8658854,45.28125 59.8971354,45.6705729 59.1992188,46.4492188 C58.5013021,47.2278646 58.1523438,48.3151042 58.1523438,49.7109375 C58.1523438,50.6119792 58.3138021,51.3984375 58.6367188,52.0703125 C58.9596354,52.7421875 59.4179688,53.2578125 60.0117188,53.6171875 C60.6054688,53.9765625 61.2851562,54.15625 62.0507812,54.15625 Z M62.0820312,53.0703125 C61.2330729,53.0703125 60.5898438,52.7838542 60.1523438,52.2109375 C59.7148438,51.6380208 59.4960938,50.8046875 59.4960938,49.7109375 C59.4960938,48.6067708 59.7122396,47.7760417 60.1445312,47.21875 C60.5768229,46.6614583 61.2174479,46.3828125 62.0664062,46.3828125 C62.9257812,46.3828125 63.5755208,46.6653646 64.015625,47.2304688 C64.4557292,47.7955729 64.6757812,48.6223958 64.6757812,49.7109375 C64.6757812,50.8098958 64.4557292,51.6445312 64.015625,52.2148438 C63.5755208,52.7851562 62.9309896,53.0703125 62.0820312,53.0703125 Z M69.5898438,54 L69.5898438,49.5078125 C69.5898438,48.3984375 69.7786458,47.6002604 70.15625,47.1132812 C70.5338542,46.6263021 71.1289062,46.3828125 71.9414062,46.3828125 C72.5611979,46.3828125 73.0169271,46.5533854 73.3085938,46.8945312 C73.6002604,47.2356771 73.7460938,47.7473958 73.7460938,48.4296875 L73.7460938,48.4296875 L73.7460938,54 L75.0429688,54 L75.0429688,49.21875 C75.0429688,48.2552083 75.2356771,47.5416667 75.6210938,47.078125 C76.0065104,46.6145833 76.6028646,46.3828125 77.4101562,46.3828125 C78.0247396,46.3828125 78.4778646,46.5533854 78.7695312,46.8945312 C79.0611979,47.2356771 79.2070312,47.7473958 79.2070312,48.4296875 L79.2070312,48.4296875 L79.2070312,54 L80.5039062,54 L80.5039062,48.4140625 C80.5039062,47.3203125 80.2630208,46.5247396 79.78125,46.0273438 C79.2994792,45.5299479 78.5742188,45.28125 77.6054688,45.28125 C76.9856771,45.28125 76.4335938,45.4114583 75.9492188,45.671875 C75.4648438,45.9322917 75.0950521,46.2864583 74.8398438,46.734375 L74.8398438,46.734375 L74.7773438,46.734375 C74.3658854,45.765625 73.4908854,45.28125 72.1523438,45.28125 C71.6002604,45.28125 71.1015625,45.3984375 70.65625,45.6328125 C70.2109375,45.8671875 69.8658854,46.1927083 69.6210938,46.609375 L69.6210938,46.609375 L69.5585938,46.609375 L69.3476562,45.4375 L68.2929688,45.4375 L68.2929688,54 L69.5898438,54 Z M86.7929688,54.15625 C87.3710938,54.15625 87.8645833,54.1132812 88.2734375,54.0273438 C88.6822917,53.9414062 89.1158854,53.7994792 89.5742188,53.6015625 L89.5742188,53.6015625 L89.5742188,52.4453125 C88.6731771,52.8307292 87.7617188,53.0234375 86.8398438,53.0234375 C85.9648438,53.0234375 85.2864583,52.7630208 84.8046875,52.2421875 C84.3229167,51.7213542 84.0690104,50.9583333 84.0429688,49.953125 L84.0429688,49.953125 L89.9414062,49.953125 L89.9414062,49.1328125 C89.9414062,47.9765625 89.6289062,47.0455729 89.0039062,46.3398438 C88.3789062,45.6341146 87.5299479,45.28125 86.4570312,45.28125 C85.3111979,45.28125 84.3984375,45.6875 83.71875,46.5 C83.0390625,47.3125 82.6992188,48.4088542 82.6992188,49.7890625 C82.6992188,51.1588542 83.0651042,52.2291667 83.796875,53 C84.5286458,53.7708333 85.5273438,54.15625 86.7929688,54.15625 Z M88.5507812,48.8984375 L84.0742188,48.8984375 C84.1471354,48.1067708 84.3880208,47.4869792 84.796875,47.0390625 C85.2057292,46.5911458 85.7539062,46.3671875 86.4414062,46.3671875 C87.1184896,46.3671875 87.6393229,46.5846354 88.0039062,47.0195312 C88.3684896,47.4544271 88.5507812,48.0807292 88.5507812,48.8984375 L88.5507812,48.8984375 Z M93.4492188,54 L93.4492188,49.40625 C93.4492188,48.5677083 93.6953125,47.8671875 94.1875,47.3046875 C94.6796875,46.7421875 95.2721354,46.4609375 95.9648438,46.4609375 C96.2356771,46.4609375 96.5481771,46.5 96.9023438,46.578125 L96.9023438,46.578125 L97.0820312,45.375 C96.7799479,45.3125 96.4388021,45.28125 96.0585938,45.28125 C95.5221354,45.28125 95.0299479,45.4322917 94.5820312,45.734375 C94.1341146,46.0364583 93.7513021,46.4661458 93.4335938,47.0234375 L93.4335938,47.0234375 L93.3710938,47.0234375 L93.2226562,45.4375 L92.1523438,45.4375 L92.1523438,54 L93.4492188,54 Z M100.816406,54.15625 C101.889323,54.15625 102.722656,53.9401042 103.316406,53.5078125 C103.910156,53.0755208 104.207031,52.4609375 104.207031,51.6640625 C104.207031,51.0963542 104.028646,50.625 103.671875,50.25 C103.315104,49.875 102.628906,49.5026042 101.613281,49.1328125 C100.873698,48.8567708 100.373698,48.6458333 100.113281,48.5 C99.8528646,48.3541667 99.6640625,48.2005208 99.546875,48.0390625 C99.4296875,47.8776042 99.3710938,47.6822917 99.3710938,47.453125 C99.3710938,47.1145833 99.5273438,46.8489583 99.8398438,46.65625 C100.152344,46.4635417 100.615885,46.3671875 101.230469,46.3671875 C101.928385,46.3671875 102.707031,46.5442708 103.566406,46.8984375 L103.566406,46.8984375 L104.027344,45.84375 C103.147135,45.46875 102.246094,45.28125 101.324219,45.28125 C100.334635,45.28125 99.5559896,45.4830729 98.9882812,45.8867188 C98.4205729,46.2903646 98.1367188,46.8411458 98.1367188,47.5390625 C98.1367188,47.9296875 98.21875,48.265625 98.3828125,48.546875 C98.546875,48.828125 98.796875,49.0794271 99.1328125,49.3007812 C99.46875,49.5221354 100.035156,49.78125 100.832031,50.078125 C101.670573,50.4010417 102.234375,50.6809896 102.523438,50.9179688 C102.8125,51.1549479 102.957031,51.4401042 102.957031,51.7734375 C102.957031,52.2161458 102.77474,52.5455729 102.410156,52.7617188 C102.045573,52.9778646 101.52474,53.0859375 100.847656,53.0859375 C100.410156,53.0859375 99.9557292,53.0260417 99.484375,52.90625 C99.0130208,52.7864583 98.5716146,52.6223958 98.1601562,52.4140625 L98.1601562,52.4140625 L98.1601562,53.6171875 C98.7955729,53.9765625 99.6809896,54.15625 100.816406,54.15625 Z" id="MoovCustomers" fill="#000000" fill-rule="nonzero"></path>
                </g>
                <g id="Backend-1">
                    <rect id="Rectangle" stroke="#343434" x="0" y="0" width="129" height="78" rx="4"></rect>
                    <path d="M36.7265625,37 L36.7265625,32.5703125 L40.5390625,25.578125 L39.1015625,25.578125 L36.0546875,31.2890625 L33.03125,25.578125 L31.578125,25.578125 L35.3828125,32.6328125 L35.3828125,37 L36.7265625,37 Z M44.5390625,37.15625 C45.7786458,37.15625 46.75,36.7643229 47.453125,35.9804688 C48.15625,35.1966146 48.5078125,34.1067708 48.5078125,32.7109375 C48.5078125,31.3515625 48.1549479,30.2734375 47.4492188,29.4765625 C46.7434896,28.6796875 45.7916667,28.28125 44.59375,28.28125 C43.3541667,28.28125 42.3854167,28.6705729 41.6875,29.4492188 C40.9895833,30.2278646 40.640625,31.3151042 40.640625,32.7109375 C40.640625,33.6119792 40.8020833,34.3984375 41.125,35.0703125 C41.4479167,35.7421875 41.90625,36.2578125 42.5,36.6171875 C43.09375,36.9765625 43.7734375,37.15625 44.5390625,37.15625 Z M44.5703125,36.0703125 C43.7213542,36.0703125 43.078125,35.7838542 42.640625,35.2109375 C42.203125,34.6380208 41.984375,33.8046875 41.984375,32.7109375 C41.984375,31.6067708 42.2005208,30.7760417 42.6328125,30.21875 C43.0651042,29.6614583 43.7057292,29.3828125 44.5546875,29.3828125 C45.4140625,29.3828125 46.0638021,29.6653646 46.5039062,30.2304688 C46.9440104,30.7955729 47.1640625,31.6223958 47.1640625,32.7109375 C47.1640625,33.8098958 46.9440104,34.6445312 46.5039062,35.2148438 C46.0638021,35.7851562 45.4192708,36.0703125 44.5703125,36.0703125 Z M53.8046875,37.15625 C54.4088542,37.15625 54.9466146,37.0442708 55.4179688,36.8203125 C55.8893229,36.5963542 56.2578125,36.2734375 56.5234375,35.8515625 L56.5234375,35.8515625 L56.59375,35.8515625 L56.78125,37 L57.8515625,37 L57.8515625,28.4375 L56.5546875,28.4375 L56.5546875,32.9375 C56.5546875,34.046875 56.3476562,34.8463542 55.9335938,35.3359375 C55.5195312,35.8255208 54.8645833,36.0703125 53.96875,36.0703125 C53.2916667,36.0703125 52.7942708,35.8984375 52.4765625,35.5546875 C52.1588542,35.2109375 52,34.6901042 52,33.9921875 L52,33.9921875 L52,28.4375 L50.6875,28.4375 L50.6875,34.0390625 C50.6875,35.1276042 50.9466146,35.9192708 51.4648438,36.4140625 C51.9830729,36.9088542 52.7630208,37.15625 53.8046875,37.15625 Z M61.8984375,37 L61.8984375,32.40625 C61.8984375,31.5677083 62.1445312,30.8671875 62.6367188,30.3046875 C63.1289062,29.7421875 63.7213542,29.4609375 64.4140625,29.4609375 C64.6848958,29.4609375 64.9973958,29.5 65.3515625,29.578125 L65.3515625,29.578125 L65.53125,28.375 C65.2291667,28.3125 64.8880208,28.28125 64.5078125,28.28125 C63.9713542,28.28125 63.4791667,28.4322917 63.03125,28.734375 C62.5833333,29.0364583 62.2005208,29.4661458 61.8828125,30.0234375 L61.8828125,30.0234375 L61.8203125,30.0234375 L61.671875,28.4375 L60.6015625,28.4375 L60.6015625,37 L61.8984375,37 Z M73.3671875,37.15625 C74.0026042,37.15625 74.5325521,37.0611979 74.9570312,36.8710938 C75.3815104,36.6809896 75.8072917,36.3177083 76.234375,35.78125 L76.234375,35.78125 L76.296875,35.78125 L76.5546875,37 L77.515625,37 L77.515625,31.15625 C77.515625,30.15625 77.2695312,29.4296875 76.7773438,28.9765625 C76.2851562,28.5234375 75.5286458,28.296875 74.5078125,28.296875 C74.0026042,28.296875 73.4986979,28.3619792 72.9960938,28.4921875 C72.4934896,28.6223958 72.03125,28.8020833 71.609375,29.03125 L71.609375,29.03125 L72.0078125,30.0234375 C72.9088542,29.5859375 73.7161458,29.3671875 74.4296875,29.3671875 C75.0651042,29.3671875 75.5273438,29.5273438 75.8164062,29.8476562 C76.1054688,30.1679688 76.25,30.6640625 76.25,31.3359375 L76.25,31.3359375 L76.25,31.8671875 L74.796875,31.9140625 C72.03125,31.9973958 70.6484375,32.9036458 70.6484375,34.6328125 C70.6484375,35.4401042 70.8893229,36.0625 71.3710938,36.5 C71.8528646,36.9375 72.5182292,37.15625 73.3671875,37.15625 Z M73.625,36.0859375 C73.1145833,36.0859375 72.7174479,35.9635417 72.4335938,35.71875 C72.1497396,35.4739583 72.0078125,35.1171875 72.0078125,34.6484375 C72.0078125,34.0494792 72.2356771,33.6080729 72.6914062,33.3242188 C73.1471354,33.0403646 73.890625,32.8802083 74.921875,32.84375 L74.921875,32.84375 L76.21875,32.7890625 L76.21875,33.5625 C76.21875,34.359375 75.9882812,34.9791667 75.5273438,35.421875 C75.0664062,35.8645833 74.4322917,36.0859375 73.625,36.0859375 Z M81.484375,40.84375 L81.484375,37.3203125 C81.484375,36.8723958 81.453125,36.3984375 81.390625,35.8984375 L81.390625,35.8984375 L81.484375,35.8984375 C81.796875,36.3255208 82.1835938,36.6419271 82.6445312,36.8476562 C83.1054688,37.0533854 83.6145833,37.15625 84.171875,37.15625 C85.2864583,37.15625 86.1575521,36.7669271 86.7851562,35.9882812 C87.4127604,35.2096354 87.7265625,34.1171875 87.7265625,32.7109375 C87.7265625,31.3098958 87.4179688,30.2213542 86.8007812,29.4453125 C86.1835938,28.6692708 85.3072917,28.28125 84.171875,28.28125 C83.5989583,28.28125 83.0911458,28.3854167 82.6484375,28.59375 C82.2057292,28.8020833 81.8177083,29.140625 81.484375,29.609375 L81.484375,29.609375 L81.421875,29.609375 L81.2421875,28.4375 L80.1875,28.4375 L80.1875,40.84375 L81.484375,40.84375 Z M84.015625,36.0703125 C83.1302083,36.0703125 82.4869792,35.8111979 82.0859375,35.2929688 C81.6848958,34.7747396 81.484375,33.9140625 81.484375,32.7109375 L81.484375,32.7109375 L81.484375,32.421875 C81.4947917,31.3645833 81.6953125,30.59375 82.0859375,30.109375 C82.4765625,29.625 83.109375,29.3828125 83.984375,29.3828125 C84.7447917,29.3828125 85.3346354,29.6679688 85.7539062,30.2382812 C86.1731771,30.8085938 86.3828125,31.6276042 86.3828125,32.6953125 C86.3828125,33.7473958 86.1731771,34.5729167 85.7539062,35.171875 C85.3346354,35.7708333 84.7552083,36.0703125 84.015625,36.0703125 Z M91.2890625,40.84375 L91.2890625,37.3203125 C91.2890625,36.8723958 91.2578125,36.3984375 91.1953125,35.8984375 L91.1953125,35.8984375 L91.2890625,35.8984375 C91.6015625,36.3255208 91.9882812,36.6419271 92.4492188,36.8476562 C92.9101562,37.0533854 93.4192708,37.15625 93.9765625,37.15625 C95.0911458,37.15625 95.9622396,36.7669271 96.5898438,35.9882812 C97.2174479,35.2096354 97.53125,34.1171875 97.53125,32.7109375 C97.53125,31.3098958 97.2226562,30.2213542 96.6054688,29.4453125 C95.9882812,28.6692708 95.1119792,28.28125 93.9765625,28.28125 C93.4036458,28.28125 92.8958333,28.3854167 92.453125,28.59375 C92.0104167,28.8020833 91.6223958,29.140625 91.2890625,29.609375 L91.2890625,29.609375 L91.2265625,29.609375 L91.046875,28.4375 L89.9921875,28.4375 L89.9921875,40.84375 L91.2890625,40.84375 Z M93.8203125,36.0703125 C92.9348958,36.0703125 92.2916667,35.8111979 91.890625,35.2929688 C91.4895833,34.7747396 91.2890625,33.9140625 91.2890625,32.7109375 L91.2890625,32.7109375 L91.2890625,32.421875 C91.2994792,31.3645833 91.5,30.59375 91.890625,30.109375 C92.28125,29.625 92.9140625,29.3828125 93.7890625,29.3828125 C94.5494792,29.3828125 95.1393229,29.6679688 95.5585938,30.2382812 C95.9778646,30.8085938 96.1875,31.6276042 96.1875,32.6953125 C96.1875,33.7473958 95.9778646,34.5729167 95.5585938,35.171875 C95.1393229,35.7708333 94.5598958,36.0703125 93.8203125,36.0703125 Z M45.1757812,54.15625 C46.2486979,54.15625 47.0820312,53.9401042 47.6757812,53.5078125 C48.2695312,53.0755208 48.5664062,52.4609375 48.5664062,51.6640625 C48.5664062,51.0963542 48.3880208,50.625 48.03125,50.25 C47.6744792,49.875 46.9882812,49.5026042 45.9726562,49.1328125 C45.2330729,48.8567708 44.7330729,48.6458333 44.4726562,48.5 C44.2122396,48.3541667 44.0234375,48.2005208 43.90625,48.0390625 C43.7890625,47.8776042 43.7304688,47.6822917 43.7304688,47.453125 C43.7304688,47.1145833 43.8867188,46.8489583 44.1992188,46.65625 C44.5117188,46.4635417 44.9752604,46.3671875 45.5898438,46.3671875 C46.2877604,46.3671875 47.0664062,46.5442708 47.9257812,46.8984375 L47.9257812,46.8984375 L48.3867188,45.84375 C47.5065104,45.46875 46.6054688,45.28125 45.6835938,45.28125 C44.6940104,45.28125 43.9153646,45.4830729 43.3476562,45.8867188 C42.7799479,46.2903646 42.4960938,46.8411458 42.4960938,47.5390625 C42.4960938,47.9296875 42.578125,48.265625 42.7421875,48.546875 C42.90625,48.828125 43.15625,49.0794271 43.4921875,49.3007812 C43.828125,49.5221354 44.3945312,49.78125 45.1914062,50.078125 C46.0299479,50.4010417 46.59375,50.6809896 46.8828125,50.9179688 C47.171875,51.1549479 47.3164062,51.4401042 47.3164062,51.7734375 C47.3164062,52.2161458 47.1341146,52.5455729 46.7695312,52.7617188 C46.4049479,52.9778646 45.8841146,53.0859375 45.2070312,53.0859375 C44.7695312,53.0859375 44.3151042,53.0260417 43.84375,52.90625 C43.3723958,52.7864583 42.9309896,52.6223958 42.5195312,52.4140625 L42.5195312,52.4140625 L42.5195312,53.6171875 C43.1549479,53.9765625 44.0403646,54.15625 45.1757812,54.15625 Z M54.2929688,54.15625 C54.8710938,54.15625 55.3645833,54.1132812 55.7734375,54.0273438 C56.1822917,53.9414062 56.6158854,53.7994792 57.0742188,53.6015625 L57.0742188,53.6015625 L57.0742188,52.4453125 C56.1731771,52.8307292 55.2617188,53.0234375 54.3398438,53.0234375 C53.4648438,53.0234375 52.7864583,52.7630208 52.3046875,52.2421875 C51.8229167,51.7213542 51.5690104,50.9583333 51.5429688,49.953125 L51.5429688,49.953125 L57.4414062,49.953125 L57.4414062,49.1328125 C57.4414062,47.9765625 57.1289062,47.0455729 56.5039062,46.3398438 C55.8789062,45.6341146 55.0299479,45.28125 53.9570312,45.28125 C52.8111979,45.28125 51.8984375,45.6875 51.21875,46.5 C50.5390625,47.3125 50.1992188,48.4088542 50.1992188,49.7890625 C50.1992188,51.1588542 50.5651042,52.2291667 51.296875,53 C52.0286458,53.7708333 53.0273438,54.15625 54.2929688,54.15625 Z M56.0507812,48.8984375 L51.5742188,48.8984375 C51.6471354,48.1067708 51.8880208,47.4869792 52.296875,47.0390625 C52.7057292,46.5911458 53.2539062,46.3671875 53.9414062,46.3671875 C54.6184896,46.3671875 55.1393229,46.5846354 55.5039062,47.0195312 C55.8684896,47.4544271 56.0507812,48.0807292 56.0507812,48.8984375 L56.0507812,48.8984375 Z M60.9492188,54 L60.9492188,49.40625 C60.9492188,48.5677083 61.1953125,47.8671875 61.6875,47.3046875 C62.1796875,46.7421875 62.7721354,46.4609375 63.4648438,46.4609375 C63.7356771,46.4609375 64.0481771,46.5 64.4023438,46.578125 L64.4023438,46.578125 L64.5820312,45.375 C64.2799479,45.3125 63.9388021,45.28125 63.5585938,45.28125 C63.0221354,45.28125 62.5299479,45.4322917 62.0820312,45.734375 C61.6341146,46.0364583 61.2513021,46.4661458 60.9335938,47.0234375 L60.9335938,47.0234375 L60.8710938,47.0234375 L60.7226562,45.4375 L59.6523438,45.4375 L59.6523438,54 L60.9492188,54 Z M69.5742188,54 L72.8242188,45.4375 L71.4335938,45.4375 C70.3710938,48.3541667 69.6875,50.2460938 69.3828125,51.1132812 C69.078125,51.9804688 68.8971354,52.5520833 68.8398438,52.828125 L68.8398438,52.828125 L68.7773438,52.828125 C68.7044271,52.4739583 68.4596354,51.703125 68.0429688,50.515625 L68.0429688,50.515625 L66.1992188,45.4375 L64.8085938,45.4375 L68.0585938,54 L69.5742188,54 Z M77.8164062,54.15625 C78.3945312,54.15625 78.8880208,54.1132812 79.296875,54.0273438 C79.7057292,53.9414062 80.1393229,53.7994792 80.5976562,53.6015625 L80.5976562,53.6015625 L80.5976562,52.4453125 C79.6966146,52.8307292 78.7851562,53.0234375 77.8632812,53.0234375 C76.9882812,53.0234375 76.3098958,52.7630208 75.828125,52.2421875 C75.3463542,51.7213542 75.0924479,50.9583333 75.0664062,49.953125 L75.0664062,49.953125 L80.9648438,49.953125 L80.9648438,49.1328125 C80.9648438,47.9765625 80.6523438,47.0455729 80.0273438,46.3398438 C79.4023438,45.6341146 78.5533854,45.28125 77.4804688,45.28125 C76.3346354,45.28125 75.421875,45.6875 74.7421875,46.5 C74.0625,47.3125 73.7226562,48.4088542 73.7226562,49.7890625 C73.7226562,51.1588542 74.0885417,52.2291667 74.8203125,53 C75.5520833,53.7708333 76.5507812,54.15625 77.8164062,54.15625 Z M79.5742188,48.8984375 L75.0976562,48.8984375 C75.1705729,48.1067708 75.4114583,47.4869792 75.8203125,47.0390625 C76.2291667,46.5911458 76.7773438,46.3671875 77.4648438,46.3671875 C78.1419271,46.3671875 78.6627604,46.5846354 79.0273438,47.0195312 C79.3919271,47.4544271 79.5742188,48.0807292 79.5742188,48.8984375 L79.5742188,48.8984375 Z M84.4726562,54 L84.4726562,49.40625 C84.4726562,48.5677083 84.71875,47.8671875 85.2109375,47.3046875 C85.703125,46.7421875 86.2955729,46.4609375 86.9882812,46.4609375 C87.2591146,46.4609375 87.5716146,46.5 87.9257812,46.578125 L87.9257812,46.578125 L88.1054688,45.375 C87.8033854,45.3125 87.4622396,45.28125 87.0820312,45.28125 C86.5455729,45.28125 86.0533854,45.4322917 85.6054688,45.734375 C85.1575521,46.0364583 84.7747396,46.4661458 84.4570312,47.0234375 L84.4570312,47.0234375 L84.3945312,47.0234375 L84.2460938,45.4375 L83.1757812,45.4375 L83.1757812,54 L84.4726562,54 Z" id="Yourappserver" fill="#000000" fill-rule="nonzero"></path>
                </g>
                <g id="arrows-1" transform="translate(133.500000, 17.500000)" fill="#343434" fill-rule="nonzero">
                    <path id="forward" d="M71.3093429,-4.18091839 L71.7451306,-3.93578777 L79.7451306,0.564212231 L80.5198644,1 L79.7451306,1.43578777 L71.7451306,5.93578777 L71.3093429,6.18091839 L70.8190816,5.30934285 L71.2548694,5.06421223 L77.591,1.5 L-0.5,1.5 L-0.5,0.5 L77.591,0.5 L71.2548694,-3.06421223 L70.8190816,-3.30934285 L71.3093429,-4.18091839 Z"></path>
                    <path id="back" d="M7.69065715,36.8190816 L8.18091839,37.6906571 L7.74513062,37.9357878 L1.409,41.5 L79.5,41.5 L79.5,42.5 L1.409,42.5 L7.74513062,46.0642122 L8.18091839,46.3093429 L7.69065715,47.1809184 L7.25486938,46.9357878 L-0.74513062,42.4357878 L-1.51986443,42 L-0.74513062,41.5642122 L7.25486938,37.0642122 L7.69065715,36.8190816 Z"></path>
                </g>
                <g id="arrows-2" transform="translate(351.500000, 17.500000)" fill="#343434" fill-rule="nonzero">
                    <path id="forward" d="M71.3093429,-4.18091839 L71.7451306,-3.93578777 L79.7451306,0.564212231 L80.5198644,1 L79.7451306,1.43578777 L71.7451306,5.93578777 L71.3093429,6.18091839 L70.8190816,5.30934285 L71.2548694,5.06421223 L77.591,1.5 L-0.5,1.5 L-0.5,0.5 L77.591,0.5 L71.2548694,-3.06421223 L70.8190816,-3.30934285 L71.3093429,-4.18091839 Z"></path>
                    <path id="back" d="M7.69065715,36.8190816 L8.18091839,37.6906571 L7.74513062,37.9357878 L1.409,41.5 L79.5,41.5 L79.5,42.5 L1.409,42.5 L7.74513062,46.0642122 L8.18091839,46.3093429 L7.69065715,47.1809184 L7.25486938,46.9357878 L-0.74513062,42.4357878 L-1.51986443,42 L-0.74513062,41.5642122 L7.25486938,37.0642122 L7.69065715,36.8190816 Z"></path>
                </g>
            </g>
            <path id="Line" d="M108,89 L108,111.091 L111.564212,104.754869 L111.809343,104.319082 L112.680918,104.809343 L112.435788,105.245131 L107.935788,113.245131 L107.5,114.019864 L107.064212,113.245131 L102.564212,105.245131 L102.319082,104.809343 L103.190657,104.319082 L103.435788,104.754869 L107,111.091 L107,89 L108,89 Z" fill="#343434" fill-rule="nonzero"></path>
            <path id="Line-Copy-3" d="M108.5,255.5 L108.5,277.591 L112.064212,271.254869 L112.309343,270.819082 L113.180918,271.309343 L112.935788,271.745131 L108.435788,279.745131 L108,280.519864 L107.564212,279.745131 L103.064212,271.745131 L102.819082,271.309343 L103.690657,270.819082 L103.935788,271.254869 L107.5,277.591 L107.5,255.5 L108.5,255.5 Z" fill="#343434" fill-rule="nonzero"></path>
            <g id="step-1" transform="translate(0.000000, 27.000000)">
                <circle id="Oval" stroke="#343434" cx="12.5" cy="12.5" r="12.5"></circle>
                <path d="M14.0322266,17 L14.0322266,8.43359375 L12.5439453,8.43359375 L9.78417969,10.6308594 L10.6572266,11.7207031 L11.6416016,10.9296875 C11.7587891,10.8359375 11.9677734,10.6386719 12.2685547,10.3378906 L12.2685547,10.3378906 L12.2392578,11.2285156 L12.2216797,12.0429688 L12.2216797,17 L14.0322266,17 Z" id="1" fill="#000000" fill-rule="nonzero"></path>
            </g>
            <g id="step-2" transform="translate(0.000000, 170.000000)">
                <circle id="Oval" stroke="#343434" cx="12.5" cy="12.5" r="12.5"></circle>
                <path d="M15.5439453,17 L15.5439453,15.4765625 L11.8115234,15.4765625 L11.8115234,15.3945312 L12.9130859,14.3574219 C13.6474609,13.6855469 14.1601562,13.1679688 14.4511719,12.8046875 C14.7421875,12.4414062 14.9570312,12.0869141 15.0957031,11.7412109 C15.234375,11.3955078 15.3037109,11.0253906 15.3037109,10.6308594 C15.3037109,10.1777344 15.1904297,9.77539062 14.9638672,9.42382812 C14.7373047,9.07226562 14.4189453,8.79882812 14.0087891,8.60351562 C13.5986328,8.40820312 13.1259766,8.31054688 12.5908203,8.31054688 C12.1845703,8.31054688 11.8173828,8.35058594 11.4892578,8.43066406 C11.1611328,8.51074219 10.8583984,8.625 10.5810547,8.7734375 C10.3037109,8.921875 9.95410156,9.17578125 9.53222656,9.53515625 L9.53222656,9.53515625 L10.5166016,10.7011719 C10.8564453,10.4199219 11.1826172,10.203125 11.4951172,10.0507812 C11.8076172,9.8984375 12.1298828,9.82226562 12.4619141,9.82226562 C12.7783203,9.82226562 13.03125,9.90625 13.2207031,10.0742188 C13.4101562,10.2421875 13.5048828,10.4980469 13.5048828,10.8417969 C13.5048828,11.0722656 13.4619141,11.2949219 13.3759766,11.5097656 C13.2900391,11.7246094 13.1494141,11.9580078 12.9541016,12.2099609 C12.7587891,12.4619141 12.3427734,12.9140625 11.7060547,13.5664062 L11.7060547,13.5664062 L9.55566406,15.7402344 L9.55566406,17 L15.5439453,17 Z" id="2" fill="#000000" fill-rule="nonzero"></path>
            </g>
            <g id="step-2-copy" transform="translate(0.000000, 318.000000)">
                <circle id="Oval" stroke="#343434" cx="12.5" cy="12.5" r="12.5"></circle>
                <path d="M12.0048828,17.1171875 C13.1142578,17.1171875 13.9677734,16.8876953 14.5654297,16.4287109 C15.1630859,15.9697266 15.4619141,15.328125 15.4619141,14.5039062 C15.4619141,13.9375 15.2841797,13.4873047 14.9287109,13.1533203 C14.5732422,12.8193359 14.0498047,12.609375 13.3583984,12.5234375 L13.3583984,12.5234375 L13.3583984,12.4882812 C13.9443359,12.3476562 14.3994141,12.0898438 14.7236328,11.7148438 C15.0478516,11.3398438 15.2099609,10.8847656 15.2099609,10.3496094 C15.2099609,9.70898438 14.953125,9.20898438 14.4394531,8.84960938 C13.9257812,8.49023438 13.2255859,8.31054688 12.3388672,8.31054688 C11.2568359,8.31054688 10.3251953,8.59179688 9.54394531,9.15429688 L9.54394531,9.15429688 L10.3818359,10.4023438 C10.7373047,10.171875 11.0605469,10.0097656 11.3515625,9.91601562 C11.6425781,9.82226562 11.9287109,9.77539062 12.2099609,9.77539062 C13.0224609,9.77539062 13.4287109,10.0996094 13.4287109,10.7480469 C13.4287109,11.1699219 13.2753906,11.4677734 12.96875,11.6416016 C12.6621094,11.8154297 12.1767578,11.9023438 11.5126953,11.9023438 L11.5126953,11.9023438 L10.8505859,11.9023438 L10.8505859,13.2910156 L11.5009766,13.2910156 C12.2197266,13.2910156 12.7431641,13.375 13.0712891,13.5429688 C13.3994141,13.7109375 13.5634766,13.9960938 13.5634766,14.3984375 C13.5634766,14.8476562 13.4208984,15.1738281 13.1357422,15.3769531 C12.8505859,15.5800781 12.4091797,15.6816406 11.8115234,15.6816406 C11.4208984,15.6816406 11.0263672,15.6289062 10.6279297,15.5234375 C10.2294922,15.4179688 9.86425781,15.28125 9.53222656,15.1132812 L9.53222656,15.1132812 L9.53222656,16.6542969 C10.2509766,16.9628906 11.0751953,17.1171875 12.0048828,17.1171875 Z" id="3" fill="#000000" fill-rule="nonzero"></path>
            </g>
        </g>
    </g>
</svg>
